<svg xmlns="http://www.w3.org/2000/svg" xmlns:xlink="http://www.w3.org/1999/xlink" xmlns:lucid="lucid" width="2297.69" height="1371.52"><g transform="translate(0 0)" lucid:page-tab-id="HWEp-vi-RSFO"><path d="M0 0h2297.7v1371.52H0z" fill="#fff"/><path d="M740 56.16a8 8 0 0 1 8-8h836.75a8 8 0 0 1 8 8V81.3a8 8 0 0 1-8 8H748a8 8 0 0 1-8-8z" stroke="#000" stroke-opacity="0" stroke-width="2" fill="#fff" fill-opacity="0"/><use xlink:href="#a" transform="matrix(1,0,0,1,744,52.15522395638238) translate(342.4273665364583 27.211126302083333)"/><use xlink:href="#b" transform="matrix(1,0,0,1,744,52.15522395638238) translate(406.680517578125 27.211126302083333)"/><use xlink:href="#c" transform="matrix(1,0,0,1,744,52.15522395638238) translate(442.35554361979166 27.211126302083333)"/><path d="M1016.48 87.97h309.36M1016.5 87.97h-1.02M1325.82 87.97h1.02" stroke="#a9afb8" stroke-width="2" fill="none"/><path d="M740 97.3a8 8 0 0 1 8-8h837.7a8 8 0 0 1 8 8v2.86a8 8 0 0 1-8 8H748a8 8 0 0 1-8-8z" stroke="#000" stroke-opacity="0" stroke-width="2" fill="#fff" fill-opacity="0"/><use xlink:href="#d" transform="matrix(1,0,0,1,744.0000000000005,93.3104479132812) translate(313.3495033094618 16.461006944444446)"/><use xlink:href="#e" transform="matrix(1,0,0,1,744.0000000000005,93.3104479132812) translate(356.8874829101562 16.461006944444446)"/><use xlink:href="#f" transform="matrix(1,0,0,1,744.0000000000005,93.3104479132812) translate(431.1340470377604 16.461006944444446)"/><use xlink:href="#g" transform="matrix(1,0,0,1,744.0000000000005,93.3104479132812) translate(443.8661971028646 16.461006944444446)"/><use xlink:href="#h" transform="matrix(1,0,0,1,744.0000000000005,93.3104479132812) translate(478.8605080837674 16.461006944444446)"/><use xlink:href="#i" transform="matrix(1,0,0,1,744.0000000000005,93.3104479132812) translate(504.123372124566 16.461006944444446)"/><path d="M1120 440h200v168h-200z" fill="#fff"/><path d="M1120 480h200v33h-200z" fill="#fff"/><path d="M1120 512h200v33h-200z" fill="#fff"/><path d="M1120 544h200v33h-200z" fill="#fff"/><path d="M1120 576h200v32h-200z" fill="#fff"/><path d="M1121 480h198-198zM1120 440h200v168h-200zM1187.6 481v126z" stroke="#000" stroke-width="2" fill="none"/><use xlink:href="#j" transform="matrix(1,0,0,1,1130,440) translate(69.9169921875 26.5478515625)"/><use xlink:href="#k" transform="matrix(1,0,0,1,1125,482.5) translate(17.205078125 20.0478515625)"/><use xlink:href="#l" transform="matrix(1,0,0,1,1192.6103515625,482.5) translate(32.5605615234375 19.589501953125)"/><use xlink:href="#m" transform="matrix(1,0,0,1,1125,514.5) translate(17.64013671875 20.0478515625)"/><use xlink:href="#n" transform="matrix(1,0,0,1,1192.6103515625,514.5) translate(23.85134765625 19.589501953125)"/><use xlink:href="#o" transform="matrix(1,0,0,1,1125,546.5) translate(11.43505859375 20.0478515625)"/><use xlink:href="#p" transform="matrix(1,0,0,1,1192.6103515625,546.5) translate(38.2822412109375 19.589501953125)"/><use xlink:href="#o" transform="matrix(1,0,0,1,1125,578.5) translate(11.43505859375 20.0478515625)"/><use xlink:href="#q" transform="matrix(1,0,0,1,1192.6103515625,578.5) translate(28.747470703124996 19.589501953125)"/><path d="M1460 440h200v200h-200z" fill="#fff"/><path d="M1460 480h200v33h-200z" fill="#fff"/><path d="M1460 512h200v33h-200z" fill="#fff"/><path d="M1460 544h200v33h-200z" fill="#fff"/><path d="M1460 576h200v33h-200z" fill="#fff"/><path d="M1460 608h200v32h-200z" fill="#fff"/><path d="M1461 480h198-198zM1460 440h200v200h-200zM1527.6 481v158z" stroke="#000" stroke-width="2" fill="none"/><use xlink:href="#r" transform="matrix(1,0,0,1,1470,440) translate(65.7333984375 26.5478515625)"/><use xlink:href="#k" transform="matrix(1,0,0,1,1465,482.5) translate(17.205078125 20.0478515625)"/><use xlink:href="#s" transform="matrix(1,0,0,1,1532.6103515625,482.5) translate(30.513017578125 19.589501953125)"/><use xlink:href="#m" transform="matrix(1,0,0,1,1465,514.5) translate(17.64013671875 20.0478515625)"/><use xlink:href="#t" transform="matrix(1,0,0,1,1532.6103515625,514.5) translate(34.403759765625 19.589501953125)"/><use xlink:href="#o" transform="matrix(1,0,0,1,1465,546.5) translate(11.43505859375 20.0478515625)"/><use xlink:href="#u" transform="matrix(1,0,0,1,1532.6103515625,546.5) translate(30.741884765625 19.589501953125)"/><use xlink:href="#o" transform="matrix(1,0,0,1,1465,578.5) translate(11.43505859375 20.0478515625)"/><use xlink:href="#v" transform="matrix(1,0,0,1,1532.6103515625,578.5) translate(43.2233203125 19.589501953125)"/><use xlink:href="#o" transform="matrix(1,0,0,1,1465,610.5) translate(11.43505859375 20.0478515625)"/><use xlink:href="#w" transform="matrix(1,0,0,1,1532.6103515625,610.5) translate(39.8434423828125 19.589501953125)"/><path d="M1341 560h39.02a9.98 9.98 0 0 0 9.98-9.98 9.98 9.98 0 0 1 9.98-9.98h39.6M1321 560h20m0 10v-20M1458.78 540.04h-20m20-10l-20 10m20 10l-20-10" stroke="#333" fill="none"/><path d="M2040 472h200v136h-200z" fill="#fff"/><path d="M2040 512h200v33h-200z" fill="#fff"/><path d="M2040 544h200v33h-200z" fill="#fff"/><path d="M2040 576h200v32h-200z" fill="#fff"/><path d="M2041 512h198-198zM2040 472h200v136h-200zM2107.6 513v94z" stroke="#000" stroke-width="2" fill="none"/><use xlink:href="#x" transform="matrix(1,0,0,1,2050,472) translate(71.4638671875 26.5478515625)"/><use xlink:href="#k" transform="matrix(1,0,0,1,2045,514.5) translate(17.205078125 20.0478515625)"/><use xlink:href="#y" transform="matrix(1,0,0,1,2112.6103515625,514.5) translate(22.241103515624992 19.589501953125)"/><use xlink:href="#o" transform="matrix(1,0,0,1,2045,546.5) translate(11.43505859375 20.0478515625)"/><use xlink:href="#z" transform="matrix(1,0,0,1,2112.6103515625,546.5) translate(28.134433593749996 19.589501953125)"/><use xlink:href="#o" transform="matrix(1,0,0,1,2045,578.5) translate(11.43505859375 20.0478515625)"/><use xlink:href="#u" transform="matrix(1,0,0,1,2112.6103515625,578.5) translate(30.741884765625 19.589501953125)"/><path d="M812.3 968.37h200v136h-200z" fill="#fff"/><path d="M812.3 1008.37h200v33h-200z" fill="#fff"/><path d="M812.3 1040.37h200v33h-200z" fill="#fff"/><path d="M812.3 1072.37h200v32h-200z" fill="#fff"/><path d="M813.3 1008.37h198-198zM812.3 968.37h200v136h-200zM879.9 1009.37v94z" stroke="#000" stroke-width="2" fill="none"/><use xlink:href="#A" transform="matrix(1,0,0,1,822.3014343046528,968.3723841944495) translate(47.0654296875 26.5478515625)"/><use xlink:href="#k" transform="matrix(1,0,0,1,817.3014343046528,1010.8723841944495) translate(17.205078125 20.0478515625)"/><use xlink:href="#B" transform="matrix(1,0,0,1,884.9117858671528,1010.8723841944495) translate(21.570849609374996 19.589501953125)"/><use xlink:href="#o" transform="matrix(1,0,0,1,817.3014343046528,1042.8723841944495) translate(11.43505859375 20.0478515625)"/><use xlink:href="#C" transform="matrix(1,0,0,1,884.9117858671528,1042.8723841944495) translate(40.280742187499996 19.589501953125)"/><use xlink:href="#o" transform="matrix(1,0,0,1,817.3014343046528,1074.8723841944495) translate(11.43505859375 20.0478515625)"/><use xlink:href="#D" transform="matrix(1,0,0,1,884.9117858671528,1074.8723841944495) translate(42.0667236328125 19.589501953125)"/><path d="M812.3 1171.74h200v136h-200z" fill="#fff"/><path d="M812.3 1211.74h200v33h-200z" fill="#fff"/><path d="M812.3 1243.74h200v33h-200z" fill="#fff"/><path d="M812.3 1275.74h200v32h-200z" fill="#fff"/><path d="M813.3 1211.74h198-198zM812.3 1171.74h200v136h-200zM879.9 1212.74v94z" stroke="#000" stroke-width="2" fill="none"/><use xlink:href="#E" transform="matrix(1,0,0,1,822.3014343046528,1171.7447683890812) translate(65.14453125 26.5478515625)"/><use xlink:href="#k" transform="matrix(1,0,0,1,817.3014343046528,1214.2447683890812) translate(17.205078125 20.0478515625)"/><use xlink:href="#F" transform="matrix(1,0,0,1,884.9117858671528,1214.2447683890812) translate(25.9969775390625 19.589501953125)"/><use xlink:href="#m" transform="matrix(1,0,0,1,817.3014343046528,1246.2447683890812) translate(17.64013671875 20.0478515625)"/><use xlink:href="#G" transform="matrix(1,0,0,1,884.9117858671528,1246.2447683890812) translate(25.298115234374997 19.589501953125)"/><use xlink:href="#o" transform="matrix(1,0,0,1,817.3014343046528,1278.2447683890812) translate(11.43505859375 20.0478515625)"/><use xlink:href="#H" transform="matrix(1,0,0,1,884.9117858671528,1278.2447683890812) translate(18.881660156249993 19.589501953125)"/><path d="M812.3 701h200v200h-200z" fill="#fff"/><path d="M812.3 741h200v33h-200z" fill="#fff"/><path d="M812.3 773h200v33h-200z" fill="#fff"/><path d="M812.3 805h200v33h-200z" fill="#fff"/><path d="M812.3 837h200v33h-200z" fill="#fff"/><path d="M812.3 869h200v32h-200z" fill="#fff"/><path d="M813.3 741h198-198zM812.3 701h200v200h-200zM879.9 742v158z" stroke="#000" stroke-width="2" fill="none"/><use xlink:href="#I" transform="matrix(1,0,0,1,822.3014343046528,700.9999999998179) translate(57.7705078125 26.5478515625)"/><use xlink:href="#k" transform="matrix(1,0,0,1,817.3014343046528,743.4999999998179) translate(17.205078125 20.0478515625)"/><use xlink:href="#J" transform="matrix(1,0,0,1,884.9117858671528,743.4999999998179) translate(23.238310546875 19.589501953125)"/><use xlink:href="#m" transform="matrix(1,0,0,1,817.3014343046528,775.4999999998179) translate(17.64013671875 20.0478515625)"/><use xlink:href="#G" transform="matrix(1,0,0,1,884.9117858671528,775.4999999998179) translate(25.298115234374997 19.589501953125)"/><use xlink:href="#m" transform="matrix(1,0,0,1,817.3014343046528,807.4999999998179) translate(17.64013671875 20.0478515625)"/><use xlink:href="#n" transform="matrix(1,0,0,1,884.9117858671528,807.4999999998179) translate(23.85134765625 19.589501953125)"/><use xlink:href="#o" transform="matrix(1,0,0,1,817.3014343046528,839.4999999998179) translate(11.43505859375 20.0478515625)"/><use xlink:href="#K" transform="matrix(1,0,0,1,884.9117858671528,839.4999999998179) translate(39.594140624999994 19.589501953125)"/><use xlink:href="#o" transform="matrix(1,0,0,1,817.3014343046528,871.4999999998179) translate(11.43505859375 20.0478515625)"/><use xlink:href="#v" transform="matrix(1,0,0,1,884.9117858671528,871.4999999998179) translate(43.2233203125 19.589501953125)"/><path d="M1740 488h200v104h-200z" fill="#fff"/><path d="M1740 528h200v33h-200z" fill="#fff"/><path d="M1740 560h200v32h-200z" fill="#fff"/><path d="M1741 528h198-198zM1740 488h200v104h-200zM1807.6 529v62z" stroke="#000" stroke-width="2" fill="none"/><use xlink:href="#L" transform="matrix(1,0,0,1,1750,488) translate(43.41357421875 26.5478515625)"/><use xlink:href="#m" transform="matrix(1,0,0,1,1745,530.5) translate(17.64013671875 20.0478515625)"/><use xlink:href="#s" transform="matrix(1,0,0,1,1812.6103515625,530.5) translate(30.513017578125 19.589501953125)"/><use xlink:href="#m" transform="matrix(1,0,0,1,1745,562.5) translate(17.64013671875 20.0478515625)"/><use xlink:href="#y" transform="matrix(1,0,0,1,1812.6103515625,562.5) translate(22.241103515624992 19.589501953125)"/><path d="M1681 527.88h10.92a8.08 8.08 0 0 1 8.08 8.08 8.08 8.08 0 0 0 8.08 8.08h11.5M1661 527.88h20m0 10v-20M1738.78 544.04h-20m20-10l-20 10m20 10l-20-10M2019 560.2h-20.92a8.08 8.08 0 0 1-8.08-8.08 8.08 8.08 0 0 0-8.08-8.08h-21.5M2039 560.2h-20m0-10v20M1941.22 544.04h20m-20 10l20-10m-20-10l20 10M912.3 1150.74v-25.96M912.3 1170.74v-20m10 0h-20M912.3 1105.6v20m-10-20l10 20m10-20l-10 20M912.3 947.37V921.4M912.3 967.37v-20m10 0h-20M912.3 902.22v20m-10-20l10 20m10-20l-10 20" stroke="#333" fill="none"/><path d="M804.6 484H1020v136H804.6z" fill="#fff"/><path d="M804.6 524H1020v33H804.6z" fill="#fff"/><path d="M804.6 556H1020v33H804.6z" fill="#fff"/><path d="M804.6 588H1020v32H804.6z" fill="#fff"/><path d="M805.6 524H1019 805.6zM804.6 484H1020v136H804.6zM872.2 525v94z" stroke="#000" stroke-width="2" fill="none"/><use xlink:href="#M" transform="matrix(1,0,0,1,814.6028686093057,484) translate(66.4296875 26.5478515625)"/><use xlink:href="#k" transform="matrix(1,0,0,1,809.6028686093057,526.5) translate(17.205078125 20.0478515625)"/><use xlink:href="#n" transform="matrix(1,0,0,1,877.2132201718057,526.5) translate(31.35134765625 19.589501953125)"/><use xlink:href="#m" transform="matrix(1,0,0,1,809.6028686093057,558.5) translate(17.64013671875 20.0478515625)"/><use xlink:href="#t" transform="matrix(1,0,0,1,877.2132201718057,558.5) translate(41.903759765625 19.589501953125)"/><use xlink:href="#m" transform="matrix(1,0,0,1,809.6028686093057,590.5) translate(17.64013671875 20.0478515625)"/><use xlink:href="#J" transform="matrix(1,0,0,1,877.2132201718057,590.5) translate(30.738310546875 19.589501953125)"/><path d="M1099 560h-23a6 6 0 0 0-6 6 6 6 0 0 1-6 6h-23M1119 560h-20m0-10v20M1021 572h20m0 10v-20" stroke="#333" fill="none"/><path d="M1120 765h200v136h-200z" fill="#fff"/><path d="M1120 805h200v33h-200z" fill="#fff"/><path d="M1120 837h200v33h-200z" fill="#fff"/><path d="M1120 869h200v32h-200z" fill="#fff"/><path d="M1121 805h198-198zM1120 765h200v136h-200zM1187.6 806v94z" stroke="#000" stroke-width="2" fill="none"/><use xlink:href="#N" transform="matrix(1,0,0,1,1130,764.9999999998179) translate(21.3310546875 26.5478515625)"/><use xlink:href="#k" transform="matrix(1,0,0,1,1125,807.4999999998179) translate(17.205078125 20.0478515625)"/><use xlink:href="#O" transform="matrix(1,0,0,1,1192.6103515625,807.4999999998179) translate(36.2060888671875 19.589501953125)"/><use xlink:href="#m" transform="matrix(1,0,0,1,1125,839.4999999998179) translate(17.64013671875 20.0478515625)"/><use xlink:href="#t" transform="matrix(1,0,0,1,1192.6103515625,839.4999999998179) translate(34.403759765625 19.589501953125)"/><use xlink:href="#o" transform="matrix(1,0,0,1,1125,871.4999999998179) translate(11.43505859375 20.0478515625)"/><use xlink:href="#P" transform="matrix(1,0,0,1,1192.6103515625,871.4999999998179) translate(12.056513671874995 19.589501953125)"/><path d="M1220 629v115.6M1220 609v20m-10 0h20M1220 763.78v-20m10 20l-10-20m-10 20l10-20M912.3 641v39.6M912.3 621v20m-10 0h20M912.3 699.78v-20m10 20l-10-20m-10 20l10-20" stroke="#333" fill="none"/><path d="M420 484.2h200v168H420z" fill="#fff"/><path d="M420 524.2h200v33H420z" fill="#fff"/><path d="M420 556.2h200v33H420z" fill="#fff"/><path d="M420 588.2h200v33H420z" fill="#fff"/><path d="M420 620.2h200v32H420z" fill="#fff"/><path d="M421 524.2h198-198zM420 484.2h200v168H420zM487.6 525.2v126z" stroke="#000" stroke-width="2" fill="none"/><use xlink:href="#Q" transform="matrix(1,0,0,1,430,484.18570349447907) translate(59.54150390625 26.5478515625)"/><use xlink:href="#k" transform="matrix(1,0,0,1,425,526.6857034944791) translate(17.205078125 20.0478515625)"/><use xlink:href="#R" transform="matrix(1,0,0,1,492.6103515625,526.6857034944791) translate(24.8444677734375 19.589501953125)"/><use xlink:href="#m" transform="matrix(1,0,0,1,425,558.6857034944791) translate(17.64013671875 20.0478515625)"/><use xlink:href="#n" transform="matrix(1,0,0,1,492.6103515625,558.6857034944791) translate(23.85134765625 19.589501953125)"/><use xlink:href="#m" transform="matrix(1,0,0,1,425,590.6857034944791) translate(17.64013671875 20.0478515625)"/><use xlink:href="#t" transform="matrix(1,0,0,1,492.6103515625,590.6857034944791) translate(34.403759765625 19.589501953125)"/><use xlink:href="#m" transform="matrix(1,0,0,1,425,622.6857034944791) translate(17.64013671875 20.0478515625)"/><use xlink:href="#J" transform="matrix(1,0,0,1,492.6103515625,622.6857034944791) translate(23.238310546875 19.589501953125)"/><path d="M641 572.2h142.6M621 572.2h20m0 10v-20M803.6 572.2h-20m0-10v20" stroke="#333" fill="none"/><path d="M300 200h200v136H300z" fill="#fff"/><path d="M300 240h200v33H300z" fill="#fff"/><path d="M300 272h200v33H300z" fill="#fff"/><path d="M300 304h200v32H300z" fill="#fff"/><path d="M301 240h198-198zM300 200h200v136H300zM367.6 241v94z" stroke="#000" stroke-width="2" fill="none"/><use xlink:href="#S" transform="matrix(1,0,0,1,310,200) translate(51.9345703125 26.5478515625)"/><use xlink:href="#k" transform="matrix(1,0,0,1,305,242.5) translate(17.205078125 20.0478515625)"/><use xlink:href="#T" transform="matrix(1,0,0,1,372.6103515625,242.5) translate(17.680107421874993 19.589501953125)"/><use xlink:href="#m" transform="matrix(1,0,0,1,305,274.5) translate(17.64013671875 20.0478515625)"/><use xlink:href="#U" transform="matrix(1,0,0,1,372.6103515625,274.5) translate(32.139609375 19.589501953125)"/><use xlink:href="#o" transform="matrix(1,0,0,1,305,306.5) translate(11.43505859375 20.0478515625)"/><use xlink:href="#D" transform="matrix(1,0,0,1,372.6103515625,306.5) translate(42.0667236328125 19.589501953125)"/><path d="M520 200h200v136H520z" fill="#fff"/><path d="M520 240h200v33H520z" fill="#fff"/><path d="M520 272h200v33H520z" fill="#fff"/><path d="M520 304h200v32H520z" fill="#fff"/><path d="M521 240h198-198zM520 200h200v136H520zM587.6 241v94z" stroke="#000" stroke-width="2" fill="none"/><use xlink:href="#V" transform="matrix(1,0,0,1,530,200) translate(74.53564453125 26.5478515625)"/><use xlink:href="#k" transform="matrix(1,0,0,1,525,242.5) translate(17.205078125 20.0478515625)"/><use xlink:href="#W" transform="matrix(1,0,0,1,592.6103515625,242.5) translate(38.82988769531249 19.589501953125)"/><use xlink:href="#m" transform="matrix(1,0,0,1,525,274.5) translate(17.64013671875 20.0478515625)"/><use xlink:href="#U" transform="matrix(1,0,0,1,592.6103515625,274.5) translate(32.139609375 19.589501953125)"/><use xlink:href="#o" transform="matrix(1,0,0,1,525,306.5) translate(11.43505859375 20.0478515625)"/><use xlink:href="#D" transform="matrix(1,0,0,1,592.6103515625,306.5) translate(42.0667236328125 19.589501953125)"/><path d="M620 357v8a12 12 0 0 0 12 12h36a12 12 0 0 1 12 12v102.55a12 12 0 0 0 12 12h92.2M620 337v20m-10 0h20M803.38 503.55h-20m20-10l-20 10m20 10l-20-10" stroke="#333" fill="none"/><path d="M400 357v81a12 12 0 0 0 12 12h433.3a12 12 0 0 1 12 12v1.6M400 337v20m-10 0h20M857.3 482.78v-20m10 20l-10-20m-10 20l10-20" stroke="#333" fill="none"/><path d="M100 484h200v136H100z" fill="#fff"/><path d="M100 524h200v33H100z" fill="#fff"/><path d="M100 556h200v33H100z" fill="#fff"/><path d="M100 588h200v32H100z" fill="#fff"/><path d="M101 524h198-198zM100 484h200v136H100zM167.6 525v94z" stroke="#000" stroke-width="2" fill="none"/><use xlink:href="#X" transform="matrix(1,0,0,1,110,484) translate(55.9248046875 26.5478515625)"/><use xlink:href="#k" transform="matrix(1,0,0,1,105,526.5) translate(17.205078125 20.0478515625)"/><use xlink:href="#Y" transform="matrix(1,0,0,1,172.6103515625,526.5) translate(21.521806640624995 19.589501953125)"/><use xlink:href="#m" transform="matrix(1,0,0,1,105,558.5) translate(17.64013671875 20.0478515625)"/><use xlink:href="#Z" transform="matrix(1,0,0,1,172.6103515625,558.5) translate(27.5009619140625 19.589501953125)"/><use xlink:href="#m" transform="matrix(1,0,0,1,105,590.5) translate(17.64013671875 20.0478515625)"/><use xlink:href="#J" transform="matrix(1,0,0,1,172.6103515625,590.5) translate(23.238310546875 19.589501953125)"/><path d="M399 572.2h-38.9a.1.1 0 0 1-.1-.1.1.1 0 0 0-.1-.1h-39.5M419 572.2h-20m0-10v20M301.22 572h20m-20 10l20-10m-20-10l20 10" stroke="#333" fill="none"/><path d="M1120 171h200v168h-200z" fill="#fff"/><path d="M1120 211h200v33h-200z" fill="#fff"/><path d="M1120 243h200v33h-200z" fill="#fff"/><path d="M1120 275h200v33h-200z" fill="#fff"/><path d="M1120 307h200v32h-200z" fill="#fff"/><path d="M1121 211h198-198zM1120 171h200v168h-200zM1187.6 212v126z" stroke="#000" stroke-width="2" fill="none"/><use xlink:href="#aa" transform="matrix(1,0,0,1,1130,171.00000000018213) translate(28.8369140625 26.5478515625)"/><use xlink:href="#k" transform="matrix(1,0,0,1,1125,213.50000000018213) translate(17.205078125 20.0478515625)"/><use xlink:href="#ab" transform="matrix(1,0,0,1,1192.6103515625,213.50000000018213) translate(11.042958984374998 19.589501953125)"/><use xlink:href="#m" transform="matrix(1,0,0,1,1125,245.50000000018213) translate(17.64013671875 20.0478515625)"/><use xlink:href="#t" transform="matrix(1,0,0,1,1192.6103515625,245.50000000018213) translate(34.403759765625 19.589501953125)"/><use xlink:href="#m" transform="matrix(1,0,0,1,1125,277.5000000001821) translate(17.64013671875 20.0478515625)"/><use xlink:href="#n" transform="matrix(1,0,0,1,1192.6103515625,277.5000000001821) translate(23.85134765625 19.589501953125)"/><use xlink:href="#o" transform="matrix(1,0,0,1,1125,309.5000000001821) translate(11.43505859375 20.0478515625)"/><use xlink:href="#ac" transform="matrix(1,0,0,1,1192.6103515625,309.5000000001821) translate(29.756938476562496 19.589501953125)"/><path d="M1220 419v-59.6M1220 439v-20m10 0h-20M1220 340.22v20m-10-20l10 20m10-20l-10 20M949.33 463v-8a12 12 0 0 1 12-12H1028a12 12 0 0 0 12-12V271a12 12 0 0 1 12-12h47.6M949.33 483v-20m10 0h-20M1118.78 259h-20m20-10l-20 10m20 10l-20-10" stroke="#333" fill="none"/><path d="M779.52 160h200v168h-200z" fill="#fff"/><path d="M779.52 200h200v33h-200z" fill="#fff"/><path d="M779.52 232h200v33h-200z" fill="#fff"/><path d="M779.52 264h200v33h-200z" fill="#fff"/><path d="M779.52 296h200v32h-200z" fill="#fff"/><path d="M780.52 200h198-198zM779.52 160h200v168h-200zM847.13 201v126z" stroke="#000" stroke-width="2" fill="none"/><use xlink:href="#ad" transform="matrix(1,0,0,1,789.5213070194004,160) translate(35.92529296875 26.5478515625)"/><use xlink:href="#k" transform="matrix(1,0,0,1,784.5213070194004,202.5) translate(17.205078125 20.0478515625)"/><use xlink:href="#R" transform="matrix(1,0,0,1,852.1316585819004,202.5) translate(24.8444677734375 19.589501953125)"/><use xlink:href="#m" transform="matrix(1,0,0,1,784.5213070194004,234.5) translate(17.64013671875 20.0478515625)"/><use xlink:href="#n" transform="matrix(1,0,0,1,852.1316585819004,234.5) translate(23.85134765625 19.589501953125)"/><use xlink:href="#m" transform="matrix(1,0,0,1,784.5213070194004,266.5) translate(17.64013671875 20.0478515625)"/><use xlink:href="#ab" transform="matrix(1,0,0,1,852.1316585819004,266.5) translate(11.042958984374998 19.589501953125)"/><use xlink:href="#o" transform="matrix(1,0,0,1,784.5213070194004,298.5) translate(11.43505859375 20.0478515625)"/><use xlink:href="#ae" transform="matrix(1,0,0,1,852.1316585819004,298.5) translate(42.79828125 19.589501953125)"/><path d="M897.33 463v-11.1a8.9 8.9 0 0 0-8.9-8.9 8.9 8.9 0 0 1-8.9-8.9v-85.7M897.33 483v-20m10 0h-20M879.52 329.22v20m-10-20l10 20m10-20l-10 20M1099 226.72h-43.74a5.5 5.5 0 0 1-5.5-5.5 5.5 5.5 0 0 0-5.5-5.5h-44.33M1119 226.72h-20m0-10v20M980.75 215.72h20m-20 10l20-10m-20-10l20 10" stroke="#333" fill="none"/><path d="M1440 765h200v136h-200z" fill="#fff"/><path d="M1440 805h200v33h-200z" fill="#fff"/><path d="M1440 837h200v33h-200z" fill="#fff"/><path d="M1440 869h200v32h-200z" fill="#fff"/><path d="M1441 805h198-198zM1440 765h200v136h-200zM1507.6 806v94z" stroke="#000" stroke-width="2" fill="none"/><use xlink:href="#af" transform="matrix(1,0,0,1,1450,764.9999999998179) translate(67.29345703125 26.5478515625)"/><use xlink:href="#k" transform="matrix(1,0,0,1,1445,807.4999999998179) translate(17.205078125 20.0478515625)"/><use xlink:href="#ag" transform="matrix(1,0,0,1,1512.6103515625,807.4999999998179) translate(27.995478515624995 19.589501953125)"/><use xlink:href="#m" transform="matrix(1,0,0,1,1445,839.4999999998179) translate(17.64013671875 20.0478515625)"/><g><use xlink:href="#t" transform="matrix(1,0,0,1,1512.6103515625,839.4999999998179) translate(34.403759765625 19.589501953125)"/></g><g><use xlink:href="#o" transform="matrix(1,0,0,1,1445,871.4999999998179) translate(11.43505859375 20.0478515625)"/></g><g><use xlink:href="#ah" transform="matrix(1,0,0,1,1512.6103515625,871.4999999998179) translate(29.585288085937496 19.589501953125)"/></g><path d="M1280.92 629v8a12 12 0 0 0 12 12H1398a12 12 0 0 1 12 12v51a12 12 0 0 0 12 12h106a12 12 0 0 1 12 12v8.6M1280.92 609v20m-10 0h20M1540 763.78v-20m10 20l-10-20m-10 20l10-20" stroke="#333" fill="none"/><defs><path fill="#a9afb8" d="M135 0v-1490h591c327 0 492 160 492 383 0 177-115 286-268 320v15c168 8 326 140 326 361 0 236-176 411-512 411H135zm305-251h264c179 0 258-76 258-189 0-125-97-215-250-215H440v404zm0-613h241c131 0 228-74 228-194 0-109-79-183-222-183H440v377" id="ai"/><path fill="#a9afb8" d="M440 22C227 22 68-92 68-313c0-250 202-322 422-343 195-21 271-24 271-105 0-95-63-149-175-149-116 0-187 57-211 129l-275-46c57-194 237-305 487-305 240 0 474 108 474 379V0H777v-155h-10C713-51 605 22 440 22zm85-211c140 0 238-93 238-211v-121c-37 26-156 42-222 51-111 16-185 59-185 149 0 87 70 132 169 132" id="aj"/><path fill="#a9afb8" d="M572 22C302 22 117-98 78-306l279-48c29 105 101 156 224 156 114 0 185-48 185-115 0-118-228-130-337-155-215-49-322-150-322-317 0-215 187-347 470-347 265 0 424 116 466 298l-266 47c-24-76-87-130-196-130-98 0-174 46-174 113 0 56 38 95 144 117l201 40c216 44 320 143 320 302 0 220-207 367-500 367" id="ak"/><path fill="#a9afb8" d="M633 22C291 22 81-200 81-553c0-345 210-579 537-579 292 0 525 185 525 567v84H378c7 183 109 277 260 277 105 0 184-46 216-132l272 51C1071-99 893 22 633 22zM380-669h474c-15-146-94-237-233-237-143 0-229 99-241 237" id="al"/><g id="a"><use transform="matrix(0.011907552083333333,0,0,0.011907552083333333,0,0)" xlink:href="#ai"/><use transform="matrix(0.011907552083333333,0,0,0.011907552083333333,16.134733072916667,0)" xlink:href="#aj"/><use transform="matrix(0.011907552083333333,0,0,0.011907552083333333,30.2928125,0)" xlink:href="#ak"/><use transform="matrix(0.011907552083333333,0,0,0.011907552083333333,43.95077473958334,0)" xlink:href="#al"/></g><path fill="#a9afb8" d="M537 19C279 19 81-185 81-557c0-382 206-575 454-575 190 0 278 113 318 202h10v-560h300V0H868v-179h-15C812-89 719 19 537 19zm92-241c153 0 240-134 240-336 0-203-86-334-240-334-158 0-240 138-240 334 0 197 84 336 240 336" id="am"/><g id="b"><use transform="matrix(0.011907552083333333,0,0,0.011907552083333333,0,0)" xlink:href="#am"/><use transform="matrix(0.011907552083333333,0,0,0.011907552083333333,15.372649739583334,0)" xlink:href="#al"/></g><path fill="#a9afb8" d="M683-1118v229H474v562c0 71 29 104 102 104 23 0 73-7 95-13l43 225C647 9 580 16 520 16 296 16 174-96 174-301v-588H20v-229h154v-266h300v266h209" id="an"/><path fill="#a9afb8" d="M628 22C291 22 81-210 81-554c0-346 210-578 547-578 336 0 547 232 547 578 0 344-211 576-547 576zm0-236c160 0 242-146 242-341 0-197-82-341-242-341S387-753 387-555c0 195 81 341 241 341" id="ao"/><g id="c"><use transform="matrix(0.011907552083333333,0,0,0.011907552083333333,0,0)" xlink:href="#am"/><use transform="matrix(0.011907552083333333,0,0,0.011907552083333333,15.372649739583334,0)" xlink:href="#aj"/><use transform="matrix(0.011907552083333333,0,0,0.011907552083333333,29.530729166666667,0)" xlink:href="#an"/><use transform="matrix(0.011907552083333333,0,0,0.011907552083333333,38.223242187500006,0)" xlink:href="#ao"/><use transform="matrix(0.011907552083333333,0,0,0.011907552083333333,53.17912760416668,0)" xlink:href="#ak"/></g><path fill="#a9afb8" d="M783 20c-382 0-661-292-661-764 0-473 279-766 661-766 302 0 548 182 601 489h-190c-42-204-217-313-411-313-268 0-476 208-476 590 0 381 209 588 476 588 195 0 369-110 411-313h190c-52 303-296 489-601 489" id="ap"/><path fill="#a9afb8" d="M628 24c-324 0-524-230-524-574 0-343 198-582 503-582 237 0 487 146 487 559v75H286c9 234 145 362 343 362 132 0 231-58 273-172l174 48C1024-91 857 24 628 24zM287-650h624c-17-190-120-322-304-322-192 0-309 151-320 322" id="aq"/><path fill="#a9afb8" d="M538 24C308 24 148-78 108-271l171-41c32 123 123 178 257 178 156 0 256-77 256-169 0-77-54-128-164-154l-186-44c-203-48-300-148-300-305 0-192 176-326 414-326 230 0 351 112 402 269l-163 42c-31-80-94-158-238-158-133 0-233 69-233 162 0 83 57 129 188 160l169 40c203 48 298 149 298 302 0 196-179 339-441 339" id="ar"/><path fill="#a9afb8" d="M471 26C259 26 90-98 90-318c0-256 228-303 435-329 202-27 287-16 287-108 0-139-79-219-234-219-161 0-248 86-283 164l-173-57c86-203 278-265 451-265 150 0 419 46 419 395V0H815v-152h-12C765-73 660 26 471 26zm31-159c199 0 310-134 310-271v-155c-30 35-226 55-295 64-131 17-246 59-246 186 0 116 97 176 231 176" id="as"/><path fill="#a9afb8" d="M158 0v-1118h174v172h12c41-113 157-188 290-188 26 0 70 2 91 3v181c-11-2-60-10-108-10-161 0-279 109-279 260V0H158" id="at"/><g id="d"><use transform="matrix(0.006946072048611111,0,0,0.006946072048611111,0,0)" xlink:href="#ap"/><use transform="matrix(0.006946072048611111,0,0,0.006946072048611111,10.391323784722221,0)" xlink:href="#aq"/><use transform="matrix(0.006946072048611111,0,0,0.006946072048611111,18.684933810763887,0)" xlink:href="#ar"/><use transform="matrix(0.006946072048611111,0,0,0.006946072048611111,26.193637695312496,0)" xlink:href="#as"/><use transform="matrix(0.006946072048611111,0,0,0.006946072048611111,34.181620551215275,0)" xlink:href="#at"/></g><path fill="#a9afb8" d="M613 24c-304 0-509-231-509-576 0-350 205-580 509-580 305 0 511 230 511 580 0 345-206 576-511 576zm0-161c226 0 329-195 329-415 0-222-103-419-329-419-223 0-326 196-326 419 0 220 103 415 326 415" id="au"/><path fill="#a9afb8" d="M338-670V0H158v-1118h173l1 207c72-158 192-221 342-221 226 0 378 139 378 422V0H872v-695c0-172-96-275-252-275-161 0-282 109-282 300" id="av"/><path fill="#a9afb8" d="M598-1118v154H368v674c0 100 37 144 132 144 23 0 62-6 92-12L629-6c-37 13-88 20-134 20-193 0-307-107-307-290v-688H20v-154h168v-266h180v266h230" id="aw"/><g id="e"><use transform="matrix(0.006946072048611111,0,0,0.006946072048611111,0,0)" xlink:href="#ap"/><use transform="matrix(0.006946072048611111,0,0,0.006946072048611111,10.391323784722221,0)" xlink:href="#au"/><use transform="matrix(0.006946072048611111,0,0,0.006946072048611111,18.921100260416665,0)" xlink:href="#av"/><use transform="matrix(0.006946072048611111,0,0,0.006946072048611111,27.32584743923611,0)" xlink:href="#aw"/><use transform="matrix(0.006946072048611111,0,0,0.006946072048611111,31.979715711805554,0)" xlink:href="#at"/><use transform="matrix(0.006946072048611111,0,0,0.006946072048611111,37.09897081163194,0)" xlink:href="#aq"/><use transform="matrix(0.006946072048611111,0,0,0.006946072048611111,45.392580837673606,0)" xlink:href="#at"/><use transform="matrix(0.006946072048611111,0,0,0.006946072048611111,50.74800238715277,0)" xlink:href="#as"/><use transform="matrix(0.006946072048611111,0,0,0.006946072048611111,58.73598524305555,0)" xlink:href="#ar"/></g><path fill="#a9afb8" d="M419-1970V480H262v-2450h157" id="ax"/><use transform="matrix(0.006946072048611111,0,0,0.006946072048611111,0,0)" xlink:href="#ax" id="f"/><path fill="#a9afb8" d="M52 0l541-1490h220L1361 0h-200l-149-416H398L254 0H52zm404-582h497c-103-290-145-390-251-756-108 377-145 460-246 756" id="ay"/><path fill="#a9afb8" d="M158 418v-1536h174v179h20c37-59 106-193 324-193 279 0 474 222 474 576 0 356-194 580-473 580-213 0-288-135-325-197h-14v591H158zm492-555c209 0 317-186 317-421 0-232-105-413-317-413-206 0-314 166-314 413 0 249 111 421 314 421" id="az"/><path fill="#a9afb8" d="M158 0v-1118h180V0H158zm91-1301c-68 0-125-53-125-119s57-119 125-119c69 0 126 53 126 119s-57 119-126 119" id="aA"/><path fill="#a9afb8" d="M338-1490V0H158v-1490h180" id="aB"/><g id="g"><use transform="matrix(0.006946072048611111,0,0,0.006946072048611111,0,0)" xlink:href="#ay"/><use transform="matrix(0.006946072048611111,0,0,0.006946072048611111,9.8147998046875,0)" xlink:href="#az"/><use transform="matrix(0.006946072048611111,0,0,0.006946072048611111,18.525174153645832,0)" xlink:href="#at"/><use transform="matrix(0.006946072048611111,0,0,0.006946072048611111,24.102870008680554,0)" xlink:href="#aA"/><use transform="matrix(0.006946072048611111,0,0,0.006946072048611111,27.548121744791665,0)" xlink:href="#aB"/></g><path fill="#a9afb8" d="M154 0v-137l495-537c165-179 249-281 249-418 0-156-121-253-280-253-170 0-278 110-278 278H158c0-264 200-443 465-443 266 0 455 183 455 416 0 161-73 288-336 568L416-179v12h687V0H154" id="aC"/><path fill="#a9afb8" d="M120-303v-155l652-1032h231v1020h202v167h-202V0H821v-303H120zm702-167v-782h-12L323-482v12h499" id="aD"/><path fill="#a9afb8" d="M128 359l88-567h206L266 359H128" id="aE"/><g id="h"><use transform="matrix(0.006946072048611111,0,0,0.006946072048611111,0,0)" xlink:href="#aC"/><use transform="matrix(0.006946072048611111,0,0,0.006946072048611111,8.453369683159723,0)" xlink:href="#aD"/><use transform="matrix(0.006946072048611111,0,0,0.006946072048611111,17.163744032118057,0)" xlink:href="#aE"/></g><path fill="#a9afb8" d="M646 20c-332 0-524-278-524-764 0-483 194-766 524-766s524 283 524 766c0 485-191 764-524 764zm0-166c218 0 341-220 341-598 0-380-123-601-341-601s-341 222-341 601c0 378 123 598 341 598" id="aF"/><path fill="#a9afb8" d="M646 20c-249 0-524-159-524-708 0-524 209-822 547-822 250 0 431 161 467 395H950c-33-129-126-227-281-227-229 0-367 208-367 566h12c80-124 212-198 367-198 255 0 467 205 467 493 0 278-198 501-502 501zm0-167c179 0 318-148 318-334 0-182-133-328-313-328-181 0-322 156-322 330 0 176 134 332 317 332" id="aG"/><g id="i"><use transform="matrix(0.006946072048611111,0,0,0.006946072048611111,0,0)" xlink:href="#aC"/><use transform="matrix(0.006946072048611111,0,0,0.006946072048611111,8.675643988715278,0)" xlink:href="#aF"/><use transform="matrix(0.006946072048611111,0,0,0.006946072048611111,17.649969075520833,0)" xlink:href="#aC"/><use transform="matrix(0.006946072048611111,0,0,0.006946072048611111,26.32561306423611,0)" xlink:href="#aG"/></g><path d="M763 24c-353 0-583-224-583-531v-983h190v968c0 214 149 370 393 370 243 0 391-156 391-370v-968h190v983c0 307-230 531-581 531" id="aH"/><path d="M538 24C308 24 148-78 108-271l171-41c32 123 123 178 257 178 156 0 256-77 256-169 0-77-54-128-164-154l-186-44c-203-48-300-148-300-305 0-192 176-326 414-326 230 0 351 112 402 269l-163 42c-31-80-94-158-238-158-133 0-233 69-233 162 0 83 57 129 188 160l169 40c203 48 298 149 298 302 0 196-179 339-441 339" id="aI"/><path d="M628 24c-324 0-524-230-524-574 0-343 198-582 503-582 237 0 487 146 487 559v75H286c9 234 145 362 343 362 132 0 231-58 273-172l174 48C1024-91 857 24 628 24zM287-650h624c-17-190-120-322-304-322-192 0-309 151-320 322" id="aJ"/><path d="M158 0v-1118h174v172h12c41-113 157-188 290-188 26 0 70 2 91 3v181c-11-2-60-10-108-10-161 0-279 109-279 260V0H158" id="aK"/><g id="j"><use transform="matrix(0.0087890625,0,0,0.0087890625,0,0)" xlink:href="#aH"/><use transform="matrix(0.0087890625,0,0,0.0087890625,13.39453125,0)" xlink:href="#aI"/><use transform="matrix(0.0087890625,0,0,0.0087890625,22.8955078125,0)" xlink:href="#aJ"/><use transform="matrix(0.0087890625,0,0,0.0087890625,33.3896484375,0)" xlink:href="#aK"/></g><path d="M180 0v-1490h510c348 0 508 209 508 474 0 266-160 477-507 477H370V0H180zm190-706h312c236 0 327-133 327-310 0-176-91-307-329-307H370v617" id="aL"/><path d="M180 0v-1490h190c0 262 1 526-3 784 217-279 467-523 702-784h249L716-845 1319 0h-225L585-716 370-489V0H180" id="aM"/><g id="k"><use transform="matrix(0.0087890625,0,0,0.0087890625,0,0)" xlink:href="#aL"/><use transform="matrix(0.0087890625,0,0,0.0087890625,11.49609375,0)" xlink:href="#aM"/></g><path fill="#333" d="M763 24c-353 0-583-224-583-531v-983h190v968c0 214 149 370 393 370 243 0 391-156 391-370v-968h190v983c0 307-230 531-581 531" id="aN"/><path fill="#333" d="M538 24C308 24 148-78 108-271l171-41c32 123 123 178 257 178 156 0 256-77 256-169 0-77-54-128-164-154l-186-44c-203-48-300-148-300-305 0-192 176-326 414-326 230 0 351 112 402 269l-163 42c-31-80-94-158-238-158-133 0-233 69-233 162 0 83 57 129 188 160l169 40c203 48 298 149 298 302 0 196-179 339-441 339" id="aO"/><path fill="#333" d="M628 24c-324 0-524-230-524-574 0-343 198-582 503-582 237 0 487 146 487 559v75H286c9 234 145 362 343 362 132 0 231-58 273-172l174 48C1024-91 857 24 628 24zM287-650h624c-17-190-120-322-304-322-192 0-309 151-320 322" id="aP"/><path fill="#333" d="M577 24c-279 0-473-224-473-580 0-354 195-576 474-576 218 0 287 134 324 193h14v-551h180V0H922v-173h-20C865-111 790 24 577 24zm27-161c203 0 314-172 314-421 0-247-108-413-314-413-212 0-317 181-317 413 0 235 108 421 317 421" id="aQ"/><path fill="#333" d="M370-1490V0H180v-1490h190" id="aR"/><path fill="#333" d="M645 0H180v-1490h484c435 0 692 280 692 742 0 466-257 748-711 748zM370-168h263c363 0 539-218 539-580 0-358-176-574-521-574H370v1154" id="aS"/><g id="l"><use transform="matrix(0.008173828125000001,0,0,0.008173828125000001,0,0)" xlink:href="#aN"/><use transform="matrix(0.008173828125000001,0,0,0.008173828125000001,12.456914062500001,0)" xlink:href="#aO"/><use transform="matrix(0.008173828125000001,0,0,0.008173828125000001,21.292822265625002,0)" xlink:href="#aP"/><use transform="matrix(0.008173828125000001,0,0,0.008173828125000001,31.052373046875005,0)" xlink:href="#aQ"/><use transform="matrix(0.008173828125000001,0,0,0.008173828125000001,41.30235351562501,0)" xlink:href="#aR"/><use transform="matrix(0.008173828125000001,0,0,0.008173828125000001,45.79795898437501,0)" xlink:href="#aS"/></g><path d="M180 0v-1490h901v168H370v510h643v168H370V0H180" id="aT"/><g id="m"><use transform="matrix(0.0087890625,0,0,0.0087890625,0,0)" xlink:href="#aT"/><use transform="matrix(0.0087890625,0,0,0.0087890625,10.6259765625,0)" xlink:href="#aM"/></g><path fill="#333" d="M657 26c-323 0-524-166-541-416h195c15 169 171 246 346 246 202 0 356-106 356-265 5-203-294-238-475-293-239-73-380-191-380-389 0-252 224-419 512-419 294 0 499 171 508 396H992c-17-145-151-228-328-228-193 0-321 102-321 242 0 156 175 211 284 241l149 41c160 44 422 134 422 412 0 244-197 432-541 432" id="aU"/><path fill="#333" d="M140 405l46-156c120 36 205 19 263-150l32-93L54-1118h197c107 313 237 620 324 950 87-331 219-637 326-950h196L606 167c-68 178-176 259-334 259-64 0-113-12-132-21" id="aV"/><path fill="#333" d="M598-1118v154H368v674c0 100 37 144 132 144 23 0 62-6 92-12L629-6c-37 13-88 20-134 20-193 0-307-107-307-290v-688H20v-154h168v-266h180v266h230" id="aW"/><path fill="#333" d="M158 0v-1118h175l1 205c55-151 181-225 313-225 147 0 245 90 285 228 53-141 190-228 352-228 194 0 352 125 352 384V0h-181v-749c0-161-105-225-225-225-151 0-243 103-243 244V0H807v-767c0-124-93-207-219-207-131 0-250 92-250 270V0H158" id="aX"/><g id="n"><use transform="matrix(0.008173828125000001,0,0,0.008173828125000001,0,0)" xlink:href="#aU"/><use transform="matrix(0.008173828125000001,0,0,0.008173828125000001,10.740410156250002,0)" xlink:href="#aV"/><use transform="matrix(0.008173828125000001,0,0,0.008173828125000001,20.148486328125003,0)" xlink:href="#aO"/><use transform="matrix(0.008173828125000001,0,0,0.008173828125000001,28.984394531250004,0)" xlink:href="#aW"/><use transform="matrix(0.008173828125000001,0,0,0.008173828125000001,34.297382812500004,0)" xlink:href="#aP"/><use transform="matrix(0.008173828125000001,0,0,0.008173828125000001,44.05693359375,0)" xlink:href="#aX"/><use transform="matrix(0.008173828125000001,0,0,0.008173828125000001,58.72078125,0)" xlink:href="#aR"/><use transform="matrix(0.008173828125000001,0,0,0.008173828125000001,63.21638671875,0)" xlink:href="#aS"/></g><path d="M180 0v-1490h908v168H370v486h669v168H370v500h727V0H180" id="aY"/><path d="M600 0v-610L52-1490h220l295 481c50 82 90 150 130 243 40-96 80-164 128-243l294-481h219L790-610V0H600" id="aZ"/><g id="o"><use transform="matrix(0.0087890625,0,0,0.0087890625,0,0)" xlink:href="#aM"/><use transform="matrix(0.0087890625,0,0,0.0087890625,12.09375,0)" xlink:href="#aY"/><use transform="matrix(0.0087890625,0,0,0.0087890625,22.9130859375,0)" xlink:href="#aZ"/></g><path fill="#333" d="M180 0v-1490h224l606 953c40 63 108 177 176 312-27-437-7-821-13-1265h190V0h-226C860-448 622-778 356-1262c27 476 11 792 15 1262H180" id="ba"/><path fill="#333" d="M471 26C259 26 90-98 90-318c0-256 228-303 435-329 202-27 287-16 287-108 0-139-79-219-234-219-161 0-248 86-283 164l-173-57c86-203 278-265 451-265 150 0 419 46 419 395V0H815v-152h-12C765-73 660 26 471 26zm31-159c199 0 310-134 310-271v-155c-30 35-226 55-295 64-131 17-246 59-246 186 0 116 97 176 231 176" id="bb"/><g id="p"><use transform="matrix(0.008173828125000001,0,0,0.008173828125000001,0,0)" xlink:href="#ba"/><use transform="matrix(0.008173828125000001,0,0,0.008173828125000001,12.612216796875002,0)" xlink:href="#bb"/><use transform="matrix(0.008173828125000001,0,0,0.008173828125000001,22.012119140625003,0)" xlink:href="#aX"/><use transform="matrix(0.008173828125000001,0,0,0.008173828125000001,36.675966796875,0)" xlink:href="#aP"/></g><path fill="#333" d="M52 0l541-1490h220L1361 0h-200l-149-416H398L254 0H52zm404-582h497c-103-290-145-390-251-756-108 377-145 460-246 756" id="bc"/><path fill="#333" d="M158 0v-1118h174v172h12c41-113 157-188 290-188 26 0 70 2 91 3v181c-11-2-60-10-108-10-161 0-279 109-279 260V0H158" id="bd"/><g id="q"><use transform="matrix(0.008173828125000001,0,0,0.008173828125000001,0,0)" xlink:href="#bc"/><use transform="matrix(0.008173828125000001,0,0,0.008173828125000001,11.549619140625001,0)" xlink:href="#aQ"/><use transform="matrix(0.008173828125000001,0,0,0.008173828125000001,21.799599609375,0)" xlink:href="#aQ"/><use transform="matrix(0.008173828125000001,0,0,0.008173828125000001,32.049580078125004,0)" xlink:href="#bd"/><use transform="matrix(0.008173828125000001,0,0,0.008173828125000001,38.073691406250006,0)" xlink:href="#aP"/><use transform="matrix(0.008173828125000001,0,0,0.008173828125000001,47.833242187500005,0)" xlink:href="#aO"/><use transform="matrix(0.008173828125000001,0,0,0.008173828125000001,56.669150390625006,0)" xlink:href="#aO"/></g><path d="M784 20c-382 0-662-292-662-764 0-473 280-766 662-766s660 293 660 766c0 472-278 764-660 764zm0-176c266 0 475-207 475-588 0-383-209-590-475-590-268 0-477 208-477 590 0 380 209 588 477 588" id="be"/><path d="M577 24c-279 0-473-224-473-580 0-354 195-576 474-576 218 0 287 134 324 193h14v-551h180V0H922v-173h-20C865-111 790 24 577 24zm27-161c203 0 314-172 314-421 0-247-108-413-314-413-212 0-317 181-317 413 0 235 108 421 317 421" id="bf"/><g id="r"><use transform="matrix(0.0087890625,0,0,0.0087890625,0,0)" xlink:href="#be"/><use transform="matrix(0.0087890625,0,0,0.0087890625,13.763671875,0)" xlink:href="#aK"/><use transform="matrix(0.0087890625,0,0,0.0087890625,20.2412109375,0)" xlink:href="#bf"/><use transform="matrix(0.0087890625,0,0,0.0087890625,31.2626953125,0)" xlink:href="#aJ"/><use transform="matrix(0.0087890625,0,0,0.0087890625,41.7568359375,0)" xlink:href="#aK"/></g><path fill="#333" d="M784 20c-382 0-662-292-662-764 0-473 280-766 662-766s660 293 660 766c0 472-278 764-660 764zm0-176c266 0 475-207 475-588 0-383-209-590-475-590-268 0-477 208-477 590 0 380 209 588 477 588" id="bg"/><g id="s"><use transform="matrix(0.008173828125000001,0,0,0.008173828125000001,0,0)" xlink:href="#bg"/><use transform="matrix(0.008173828125000001,0,0,0.008173828125000001,12.800214843750002,0)" xlink:href="#bd"/><use transform="matrix(0.008173828125000001,0,0,0.008173828125000001,18.824326171875,0)" xlink:href="#aQ"/><use transform="matrix(0.008173828125000001,0,0,0.008173828125000001,29.074306640625004,0)" xlink:href="#aP"/><use transform="matrix(0.008173828125000001,0,0,0.008173828125000001,38.833857421875,0)" xlink:href="#bd"/><use transform="matrix(0.008173828125000001,0,0,0.008173828125000001,45.397441406249996,0)" xlink:href="#aR"/><use transform="matrix(0.008173828125000001,0,0,0.008173828125000001,49.893046874999996,0)" xlink:href="#aS"/></g><g id="t"><use transform="matrix(0.008173828125000001,0,0,0.008173828125000001,0,0)" xlink:href="#aN"/><use transform="matrix(0.008173828125000001,0,0,0.008173828125000001,12.456914062500001,0)" xlink:href="#aO"/><use transform="matrix(0.008173828125000001,0,0,0.008173828125000001,21.292822265625002,0)" xlink:href="#aP"/><use transform="matrix(0.008173828125000001,0,0,0.008173828125000001,31.052373046875005,0)" xlink:href="#bd"/><use transform="matrix(0.008173828125000001,0,0,0.008173828125000001,37.615957031250005,0)" xlink:href="#aR"/><use transform="matrix(0.008173828125000001,0,0,0.008173828125000001,42.111562500000005,0)" xlink:href="#aS"/></g><path fill="#333" d="M613 24c-304 0-509-231-509-576 0-350 205-580 509-580 305 0 511 230 511 580 0 345-206 576-511 576zm0-161c226 0 329-195 329-415 0-222-103-419-329-419-223 0-326 196-326 419 0 220 103 415 326 415" id="bh"/><path fill="#333" d="M537 14c-226 0-379-139-379-422v-710h180v695c0 172 97 275 253 275 160 0 281-109 281-300v-670h181V0H879v-209C806-46 684 14 537 14" id="bi"/><path fill="#333" d="M338-670V0H158v-1118h173l1 207c72-158 192-221 342-221 226 0 378 139 378 422V0H872v-695c0-172-96-275-252-275-161 0-282 109-282 300" id="bj"/><g id="u"><use transform="matrix(0.008173828125000001,0,0,0.008173828125000001,0,0)" xlink:href="#bc"/><use transform="matrix(0.008173828125000001,0,0,0.008173828125000001,11.549619140625001,0)" xlink:href="#aX"/><use transform="matrix(0.008173828125000001,0,0,0.008173828125000001,26.213466796875004,0)" xlink:href="#bh"/><use transform="matrix(0.008173828125000001,0,0,0.008173828125000001,36.250927734375004,0)" xlink:href="#bi"/><use transform="matrix(0.008173828125000001,0,0,0.008173828125000001,46.149433593750004,0)" xlink:href="#bj"/><use transform="matrix(0.008173828125000001,0,0,0.008173828125000001,56.039765625,0)" xlink:href="#aW"/></g><g id="v"><use transform="matrix(0.008173828125000001,0,0,0.008173828125000001,0,0)" xlink:href="#aS"/><use transform="matrix(0.008173828125000001,0,0,0.008173828125000001,12.08091796875,0)" xlink:href="#bb"/><use transform="matrix(0.008173828125000001,0,0,0.008173828125000001,21.4808203125,0)" xlink:href="#aW"/><use transform="matrix(0.008173828125000001,0,0,0.008173828125000001,26.79380859375,0)" xlink:href="#aP"/></g><g id="w"><use transform="matrix(0.008173828125000001,0,0,0.008173828125000001,0,0)" xlink:href="#aR"/><use transform="matrix(0.008173828125000001,0,0,0.008173828125000001,4.740820312500001,0)" xlink:href="#aW"/><use transform="matrix(0.008173828125000001,0,0,0.008173828125000001,10.053808593750004,0)" xlink:href="#aP"/><use transform="matrix(0.008173828125000001,0,0,0.008173828125000001,19.813359375000005,0)" xlink:href="#aX"/><use transform="matrix(0.008173828125000001,0,0,0.008173828125000001,34.47720703125,0)" xlink:href="#aO"/></g><path d="M370-1490V0H180v-1490h190" id="bk"/><path d="M598-1118v154H368v674c0 100 37 144 132 144 23 0 62-6 92-12L629-6c-37 13-88 20-134 20-193 0-307-107-307-290v-688H20v-154h168v-266h180v266h230" id="bl"/><path d="M158 0v-1118h175l1 205c55-151 181-225 313-225 147 0 245 90 285 228 53-141 190-228 352-228 194 0 352 125 352 384V0h-181v-749c0-161-105-225-225-225-151 0-243 103-243 244V0H807v-767c0-124-93-207-219-207-131 0-250 92-250 270V0H158" id="bm"/><g id="x"><use transform="matrix(0.0087890625,0,0,0.0087890625,0,0)" xlink:href="#bk"/><use transform="matrix(0.0087890625,0,0,0.0087890625,5.09765625,0)" xlink:href="#bl"/><use transform="matrix(0.0087890625,0,0,0.0087890625,10.810546875,0)" xlink:href="#aJ"/><use transform="matrix(0.0087890625,0,0,0.0087890625,21.3046875,0)" xlink:href="#bm"/></g><path fill="#333" d="M180 0v-1490h510c348 0 508 209 508 474 0 266-160 477-507 477H370V0H180zm190-706h312c236 0 327-133 327-310 0-176-91-307-329-307H370v617" id="bn"/><path fill="#333" d="M613 24c-304 0-509-231-509-576 0-350 205-580 509-580 216 0 392 114 453 309l-173 49c-33-115-133-197-280-197-223 0-326 196-326 419 0 220 103 415 326 415 150 0 252-85 285-206l172 49C1010-95 832 24 613 24" id="bo"/><g id="y"><use transform="matrix(0.008173828125000001,0,0,0.008173828125000001,0,0)" xlink:href="#bn"/><use transform="matrix(0.008173828125000001,0,0,0.008173828125000001,10.691367187500001,0)" xlink:href="#bd"/><use transform="matrix(0.008173828125000001,0,0,0.008173828125000001,16.715478515625,0)" xlink:href="#bh"/><use transform="matrix(0.008173828125000001,0,0,0.008173828125000001,26.752939453125002,0)" xlink:href="#aQ"/><use transform="matrix(0.008173828125000001,0,0,0.008173828125000001,37.002919921875005,0)" xlink:href="#bi"/><use transform="matrix(0.008173828125000001,0,0,0.008173828125000001,46.901425781250005,0)" xlink:href="#bo"/><use transform="matrix(0.008173828125000001,0,0,0.008173828125000001,56.464804687500006,0)" xlink:href="#aW"/><use transform="matrix(0.008173828125000001,0,0,0.008173828125000001,61.94126953125001,0)" xlink:href="#aR"/><use transform="matrix(0.008173828125000001,0,0,0.008173828125000001,66.43687500000001,0)" xlink:href="#aS"/></g><path fill="#333" d="M784 20c-382 0-662-292-662-764 0-473 280-766 662-766s660 293 660 766c0 282-99 499-260 629l192 255h-198L1049-33C969 2 880 20 784 20zm-62-486h198l156 205c112-98 183-261 183-483 0-383-209-590-475-590-268 0-477 208-477 590 0 380 209 588 477 588 54 0 106-9 154-25" id="bp"/><path fill="#333" d="M158 0v-1118h180V0H158zm91-1301c-68 0-125-53-125-119s57-119 125-119c69 0 126 53 126 119s-57 119-126 119" id="bq"/><g id="z"><use transform="matrix(0.008173828125000001,0,0,0.008173828125000001,0,0)" xlink:href="#bp"/><use transform="matrix(0.008173828125000001,0,0,0.008173828125000001,12.800214843750002,0)" xlink:href="#bi"/><use transform="matrix(0.008173828125000001,0,0,0.008173828125000001,22.698720703125005,0)" xlink:href="#bb"/><use transform="matrix(0.008173828125000001,0,0,0.008173828125000001,32.098623046875005,0)" xlink:href="#bj"/><use transform="matrix(0.008173828125000001,0,0,0.008173828125000001,41.988955078125,0)" xlink:href="#aW"/><use transform="matrix(0.008173828125000001,0,0,0.008173828125000001,47.465419921875004,0)" xlink:href="#bq"/><use transform="matrix(0.008173828125000001,0,0,0.008173828125000001,51.519638671875,0)" xlink:href="#aW"/><use transform="matrix(0.008173828125000001,0,0,0.008173828125000001,57.323056640625005,0)" xlink:href="#aV"/></g><path d="M657 26c-323 0-524-166-541-416h195c15 169 171 246 346 246 202 0 356-106 356-265 5-203-294-238-475-293-239-73-380-191-380-389 0-252 224-419 512-419 294 0 499 171 508 396H992c-17-145-151-228-328-228-193 0-321 102-321 242 0 156 175 211 284 241l149 41c160 44 422 134 422 412 0 244-197 432-541 432" id="br"/><path d="M338-670V0H158v-1118h173l1 207c72-158 192-221 342-221 226 0 378 139 378 422V0H872v-695c0-172-96-275-252-275-161 0-282 109-282 300" id="bs"/><path d="M613 24c-304 0-509-231-509-576 0-350 205-580 509-580 305 0 511 230 511 580 0 345-206 576-511 576zm0-161c226 0 329-195 329-415 0-222-103-419-329-419-223 0-326 196-326 419 0 220 103 415 326 415" id="bt"/><path d="M98-1322v-168h1126v168H757V0H567v-1322H98" id="bu"/><g id="A"><use transform="matrix(0.0087890625,0,0,0.0087890625,0,0)" xlink:href="#br"/><use transform="matrix(0.0087890625,0,0,0.0087890625,11.548828125,0)" xlink:href="#aJ"/><use transform="matrix(0.0087890625,0,0,0.0087890625,22.04296875,0)" xlink:href="#bs"/><use transform="matrix(0.0087890625,0,0,0.0087890625,32.677734375,0)" xlink:href="#aI"/><use transform="matrix(0.0087890625,0,0,0.0087890625,42.1787109375,0)" xlink:href="#bt"/><use transform="matrix(0.0087890625,0,0,0.0087890625,52.9716796875,0)" xlink:href="#aK"/><use transform="matrix(0.0087890625,0,0,0.0087890625,60.029296875,0)" xlink:href="#bk"/><use transform="matrix(0.0087890625,0,0,0.0087890625,64.86328125,0)" xlink:href="#bt"/><use transform="matrix(0.0087890625,0,0,0.0087890625,74.25,0)" xlink:href="#bu"/></g><path fill="#333" d="M98-1322v-168h1126v168H757V0H567v-1322H98" id="bv"/><g id="B"><use transform="matrix(0.008173828125000001,0,0,0.008173828125000001,0,0)" xlink:href="#aU"/><use transform="matrix(0.008173828125000001,0,0,0.008173828125000001,10.740410156250002,0)" xlink:href="#aP"/><use transform="matrix(0.008173828125000001,0,0,0.008173828125000001,20.499960937500003,0)" xlink:href="#bj"/><use transform="matrix(0.008173828125000001,0,0,0.008173828125000001,30.390292968750003,0)" xlink:href="#aO"/><use transform="matrix(0.008173828125000001,0,0,0.008173828125000001,39.226201171875005,0)" xlink:href="#bh"/><use transform="matrix(0.008173828125000001,0,0,0.008173828125000001,49.263662109375005,0)" xlink:href="#bd"/><use transform="matrix(0.008173828125000001,0,0,0.008173828125000001,55.827246093750006,0)" xlink:href="#aR"/><use transform="matrix(0.008173828125000001,0,0,0.008173828125000001,60.322851562500006,0)" xlink:href="#bh"/><use transform="matrix(0.008173828125000001,0,0,0.008173828125000001,69.05250000000001,0)" xlink:href="#bv"/></g><path fill="#333" d="M481 0L54-1118h197c107 314 236 620 325 951 87-331 217-637 324-951h197L670 0H481" id="bw"/><path fill="#333" d="M338-1490V0H158v-1490h180" id="bx"/><g id="C"><use transform="matrix(0.008173828125000001,0,0,0.008173828125000001,0,0)" xlink:href="#bw"/><use transform="matrix(0.008173828125000001,0,0,0.008173828125000001,9.326337890625,0)" xlink:href="#bb"/><use transform="matrix(0.008173828125000001,0,0,0.008173828125000001,18.726240234375002,0)" xlink:href="#bx"/><use transform="matrix(0.008173828125000001,0,0,0.008173828125000001,22.780458984375002,0)" xlink:href="#bi"/><use transform="matrix(0.008173828125000001,0,0,0.008173828125000001,32.67896484375,0)" xlink:href="#aP"/></g><g id="D"><use transform="matrix(0.008173828125000001,0,0,0.008173828125000001,0,0)" xlink:href="#aO"/><use transform="matrix(0.008173828125000001,0,0,0.008173828125000001,8.835908203125001,0)" xlink:href="#aW"/><use transform="matrix(0.008173828125000001,0,0,0.008173828125000001,14.394111328125003,0)" xlink:href="#bb"/><use transform="matrix(0.008173828125000001,0,0,0.008173828125000001,23.794013671875007,0)" xlink:href="#aW"/><use transform="matrix(0.008173828125000001,0,0,0.008173828125000001,29.107001953125007,0)" xlink:href="#aP"/></g><path d="M52 0l541-1490h220L1361 0h-200l-149-416H398L254 0H52zm404-582h497c-103-290-145-390-251-756-108 377-145 460-246 756" id="by"/><path d="M338-1490V0H158v-1490h180" id="bz"/><path d="M471 26C259 26 90-98 90-318c0-256 228-303 435-329 202-27 287-16 287-108 0-139-79-219-234-219-161 0-248 86-283 164l-173-57c86-203 278-265 451-265 150 0 419 46 419 395V0H815v-152h-12C765-73 660 26 471 26zm31-159c199 0 310-134 310-271v-155c-30 35-226 55-295 64-131 17-246 59-246 186 0 116 97 176 231 176" id="bA"/><g id="E"><use transform="matrix(0.0087890625,0,0,0.0087890625,0,0)" xlink:href="#by"/><use transform="matrix(0.0087890625,0,0,0.0087890625,12.4189453125,0)" xlink:href="#bz"/><use transform="matrix(0.0087890625,0,0,0.0087890625,16.7783203125,0)" xlink:href="#bA"/><use transform="matrix(0.0087890625,0,0,0.0087890625,26.8857421875,0)" xlink:href="#aK"/><use transform="matrix(0.0087890625,0,0,0.0087890625,33.943359375,0)" xlink:href="#bm"/></g><path fill="#333" d="M934 0v166H0V0h934" id="bB"/><g id="F"><use transform="matrix(0.008173828125000001,0,0,0.008173828125000001,0,0)" xlink:href="#bc"/><use transform="matrix(0.008173828125000001,0,0,0.008173828125000001,11.549619140625001,0)" xlink:href="#bx"/><use transform="matrix(0.008173828125000001,0,0,0.008173828125000001,15.603837890625002,0)" xlink:href="#bb"/><use transform="matrix(0.008173828125000001,0,0,0.008173828125000001,25.003740234375,0)" xlink:href="#bd"/><use transform="matrix(0.008173828125000001,0,0,0.008173828125000001,31.567324218750002,0)" xlink:href="#aX"/><use transform="matrix(0.008173828125000001,0,0,0.008173828125000001,46.231171875,0)" xlink:href="#bB"/><use transform="matrix(0.008173828125000001,0,0,0.008173828125000001,54.429521484375,0)" xlink:href="#aR"/><use transform="matrix(0.008173828125000001,0,0,0.008173828125000001,58.925126953125,0)" xlink:href="#aS"/></g><g id="G"><use transform="matrix(0.008173828125000001,0,0,0.008173828125000001,0,0)" xlink:href="#aU"/><use transform="matrix(0.008173828125000001,0,0,0.008173828125000001,10.740410156250002,0)" xlink:href="#aP"/><use transform="matrix(0.008173828125000001,0,0,0.008173828125000001,20.499960937500003,0)" xlink:href="#bj"/><use transform="matrix(0.008173828125000001,0,0,0.008173828125000001,30.390292968750003,0)" xlink:href="#aO"/><use transform="matrix(0.008173828125000001,0,0,0.008173828125000001,39.226201171875005,0)" xlink:href="#bh"/><use transform="matrix(0.008173828125000001,0,0,0.008173828125000001,49.263662109375005,0)" xlink:href="#bd"/><use transform="matrix(0.008173828125000001,0,0,0.008173828125000001,55.827246093750006,0)" xlink:href="#aR"/><use transform="matrix(0.008173828125000001,0,0,0.008173828125000001,60.322851562500006,0)" xlink:href="#aS"/></g><g id="H"><use transform="matrix(0.008173828125000001,0,0,0.008173828125000001,0,0)" xlink:href="#aO"/><use transform="matrix(0.008173828125000001,0,0,0.008173828125000001,8.835908203125001,0)" xlink:href="#aP"/><use transform="matrix(0.008173828125000001,0,0,0.008173828125000001,18.595458984375,0)" xlink:href="#bj"/><use transform="matrix(0.008173828125000001,0,0,0.008173828125000001,28.485791015625,0)" xlink:href="#aO"/><use transform="matrix(0.008173828125000001,0,0,0.008173828125000001,37.32169921875,0)" xlink:href="#bh"/><use transform="matrix(0.008173828125000001,0,0,0.008173828125000001,47.35916015625,0)" xlink:href="#bd"/><use transform="matrix(0.008173828125000001,0,0,0.008173828125000001,53.661181640625,0)" xlink:href="#bB"/><use transform="matrix(0.008173828125000001,0,0,0.008173828125000001,61.85953125,0)" xlink:href="#bx"/><use transform="matrix(0.008173828125000001,0,0,0.008173828125000001,65.91375000000001,0)" xlink:href="#aP"/><use transform="matrix(0.008173828125000001,0,0,0.008173828125000001,75.67330078125,0)" xlink:href="#bo"/></g><path d="M180 0v-1490h190v1322h690V0H180" id="bC"/><path d="M613 24c-304 0-509-231-509-576 0-350 205-580 509-580 216 0 392 114 453 309l-173 49c-33-115-133-197-280-197-223 0-326 196-326 419 0 220 103 415 326 415 150 0 252-85 285-206l172 49C1010-95 832 24 613 24" id="bD"/><path d="M537 14c-226 0-379-139-379-422v-710h180v695c0 172 97 275 253 275 160 0 281-109 281-300v-670h181V0H879v-209C806-46 684 14 537 14" id="bE"/><g id="I"><use transform="matrix(0.0087890625,0,0,0.0087890625,0,0)" xlink:href="#bC"/><use transform="matrix(0.0087890625,0,0,0.0087890625,10.177734375,0)" xlink:href="#aJ"/><use transform="matrix(0.0087890625,0,0,0.0087890625,20.671875,0)" xlink:href="#bD"/><use transform="matrix(0.0087890625,0,0,0.0087890625,30.955078125,0)" xlink:href="#bl"/><use transform="matrix(0.0087890625,0,0,0.0087890625,36.84375,0)" xlink:href="#bE"/><use transform="matrix(0.0087890625,0,0,0.0087890625,47.4873046875,0)" xlink:href="#aK"/><use transform="matrix(0.0087890625,0,0,0.0087890625,53.96484375,0)" xlink:href="#aJ"/></g><path fill="#333" d="M180 0v-1490h190v1322h690V0H180" id="bF"/><g id="J"><use transform="matrix(0.008173828125000001,0,0,0.008173828125000001,0,0)" xlink:href="#bF"/><use transform="matrix(0.008173828125000001,0,0,0.008173828125000001,9.465292968750001,0)" xlink:href="#aP"/><use transform="matrix(0.008173828125000001,0,0,0.008173828125000001,19.22484375,0)" xlink:href="#bo"/><use transform="matrix(0.008173828125000001,0,0,0.008173828125000001,28.788222656250003,0)" xlink:href="#aW"/><use transform="matrix(0.008173828125000001,0,0,0.008173828125000001,34.2646875,0)" xlink:href="#bi"/><use transform="matrix(0.008173828125000001,0,0,0.008173828125000001,44.163193359375,0)" xlink:href="#bd"/><use transform="matrix(0.008173828125000001,0,0,0.008173828125000001,50.1873046875,0)" xlink:href="#aP"/><use transform="matrix(0.008173828125000001,0,0,0.008173828125000001,59.94685546875,0)" xlink:href="#aR"/><use transform="matrix(0.008173828125000001,0,0,0.008173828125000001,64.4424609375,0)" xlink:href="#aS"/></g><path fill="#333" d="M600 0L52-1490h200c166 485 304 806 458 1336 156-533 285-846 449-1336h202L819 0H600" id="bG"/><g id="K"><use transform="matrix(0.008173828125000001,0,0,0.008173828125000001,0,0)" xlink:href="#bG"/><use transform="matrix(0.008173828125000001,0,0,0.008173828125000001,10.699541015625002,0)" xlink:href="#bb"/><use transform="matrix(0.008173828125000001,0,0,0.008173828125000001,20.099443359375,0)" xlink:href="#bx"/><use transform="matrix(0.008173828125000001,0,0,0.008173828125000001,24.153662109375002,0)" xlink:href="#bi"/><use transform="matrix(0.008173828125000001,0,0,0.008173828125000001,34.052167968750005,0)" xlink:href="#aP"/></g><path d="M798-719v166H144v-166h654" id="bH"/><g id="L"><use transform="matrix(0.0087890625,0,0,0.0087890625,0,0)" xlink:href="#be"/><use transform="matrix(0.0087890625,0,0,0.0087890625,13.763671875,0)" xlink:href="#aK"/><use transform="matrix(0.0087890625,0,0,0.0087890625,20.2412109375,0)" xlink:href="#bf"/><use transform="matrix(0.0087890625,0,0,0.0087890625,31.2626953125,0)" xlink:href="#aJ"/><use transform="matrix(0.0087890625,0,0,0.0087890625,41.7568359375,0)" xlink:href="#aK"/><use transform="matrix(0.0087890625,0,0,0.0087890625,47.8212890625,0)" xlink:href="#bH"/><use transform="matrix(0.0087890625,0,0,0.0087890625,56.1005859375,0)" xlink:href="#bk"/><use transform="matrix(0.0087890625,0,0,0.0087890625,61.1982421875,0)" xlink:href="#bl"/><use transform="matrix(0.0087890625,0,0,0.0087890625,66.9111328125,0)" xlink:href="#aJ"/><use transform="matrix(0.0087890625,0,0,0.0087890625,77.4052734375,0)" xlink:href="#bm"/></g><path d="M140 405l46-156c120 36 205 19 263-150l32-93L54-1118h197c107 313 237 620 324 950 87-331 219-637 326-950h196L606 167c-68 178-176 259-334 259-64 0-113-12-132-21" id="bI"/><g id="M"><use transform="matrix(0.0087890625,0,0,0.0087890625,0,0)" xlink:href="#br"/><use transform="matrix(0.0087890625,0,0,0.0087890625,11.548828125,0)" xlink:href="#bI"/><use transform="matrix(0.0087890625,0,0,0.0087890625,21.6650390625,0)" xlink:href="#aI"/><use transform="matrix(0.0087890625,0,0,0.0087890625,31.166015625,0)" xlink:href="#bl"/><use transform="matrix(0.0087890625,0,0,0.0087890625,36.87890625,0)" xlink:href="#aJ"/><use transform="matrix(0.0087890625,0,0,0.0087890625,47.373046875,0)" xlink:href="#bm"/></g><path d="M934 0v166H0V0h934" id="bJ"/><path d="M180 0v-1490h270l367 940c28 72 75 218 110 339 35-117 81-264 110-339l362-940h271V0h-187c2-448-5-837 7-1287-157 497-311 829-483 1287H842C666-458 514-784 354-1284c12 438 5 843 7 1284H180" id="bK"/><g id="N"><use transform="matrix(0.0087890625,0,0,0.0087890625,0,0)" xlink:href="#aL"/><use transform="matrix(0.0087890625,0,0,0.0087890625,11.49609375,0)" xlink:href="#bA"/><use transform="matrix(0.0087890625,0,0,0.0087890625,21.33984375,0)" xlink:href="#bI"/><use transform="matrix(0.0087890625,0,0,0.0087890625,31.4560546875,0)" xlink:href="#bm"/><use transform="matrix(0.0087890625,0,0,0.0087890625,47.2236328125,0)" xlink:href="#aJ"/><use transform="matrix(0.0087890625,0,0,0.0087890625,57.7177734375,0)" xlink:href="#bs"/><use transform="matrix(0.0087890625,0,0,0.0087890625,68.3525390625,0)" xlink:href="#bl"/><use transform="matrix(0.0087890625,0,0,0.0087890625,74.2412109375,0)" xlink:href="#bJ"/><use transform="matrix(0.0087890625,0,0,0.0087890625,83.056640625,0)" xlink:href="#bK"/><use transform="matrix(0.0087890625,0,0,0.0087890625,99.31640625,0)" xlink:href="#aJ"/><use transform="matrix(0.0087890625,0,0,0.0087890625,109.810546875,0)" xlink:href="#bl"/><use transform="matrix(0.0087890625,0,0,0.0087890625,115.5234375,0)" xlink:href="#bt"/><use transform="matrix(0.0087890625,0,0,0.0087890625,126.31640625,0)" xlink:href="#bf"/></g><path fill="#333" d="M180 0v-1490h270l367 940c28 72 75 218 110 339 35-117 81-264 110-339l362-940h271V0h-187c2-448-5-837 7-1287-157 497-311 829-483 1287H842C666-458 514-784 354-1284c12 438 5 843 7 1284H180" id="bL"/><g id="O"><use transform="matrix(0.008173828125000001,0,0,0.008173828125000001,0,0)" xlink:href="#bn"/><use transform="matrix(0.008173828125000001,0,0,0.008173828125000001,10.691367187500001,0)" xlink:href="#bL"/><use transform="matrix(0.008173828125000001,0,0,0.008173828125000001,25.812949218750003,0)" xlink:href="#bB"/><use transform="matrix(0.008173828125000001,0,0,0.008173828125000001,34.011298828125,0)" xlink:href="#aR"/><use transform="matrix(0.008173828125000001,0,0,0.008173828125000001,38.506904296875,0)" xlink:href="#aS"/></g><path fill="#333" d="M677 24c-213 0-288-135-325-197h-20V0H158v-1490h180v551h14c37-59 106-193 324-193 279 0 474 222 474 576 0 356-194 580-473 580zm-27-161c209 0 317-186 317-421 0-232-105-413-317-413-206 0-314 166-314 413 0 249 111 421 314 421" id="bM"/><g id="P"><use transform="matrix(0.008173828125000001,0,0,0.008173828125000001,0,0)" xlink:href="#bo"/><use transform="matrix(0.008173828125000001,0,0,0.008173828125000001,9.726855468750001,0)" xlink:href="#bb"/><use transform="matrix(0.008173828125000001,0,0,0.008173828125000001,19.126757812500003,0)" xlink:href="#bd"/><use transform="matrix(0.008173828125000001,0,0,0.008173828125000001,25.150869140625,0)" xlink:href="#aQ"/><use transform="matrix(0.008173828125000001,0,0,0.008173828125000001,35.400849609375,0)" xlink:href="#ba"/><use transform="matrix(0.008173828125000001,0,0,0.008173828125000001,48.013066406250005,0)" xlink:href="#bi"/><use transform="matrix(0.008173828125000001,0,0,0.008173828125000001,57.911572265625004,0)" xlink:href="#aX"/><use transform="matrix(0.008173828125000001,0,0,0.008173828125000001,72.57541992187501,0)" xlink:href="#bM"/><use transform="matrix(0.008173828125000001,0,0,0.008173828125000001,82.825400390625,0)" xlink:href="#aP"/><use transform="matrix(0.008173828125000001,0,0,0.008173828125000001,92.584951171875,0)" xlink:href="#bd"/></g><path d="M180 0v-1490h190v644h782v-644h190V0h-190v-678H370V0H180" id="bN"/><path d="M158 0v-1118h180V0H158zm91-1301c-68 0-125-53-125-119s57-119 125-119c69 0 126 53 126 119s-57 119-126 119" id="bO"/><g id="Q"><use transform="matrix(0.0087890625,0,0,0.0087890625,0,0)" xlink:href="#bN"/><use transform="matrix(0.0087890625,0,0,0.0087890625,13.376953125,0)" xlink:href="#bO"/><use transform="matrix(0.0087890625,0,0,0.0087890625,17.736328125,0)" xlink:href="#aI"/><use transform="matrix(0.0087890625,0,0,0.0087890625,27.2373046875,0)" xlink:href="#bl"/><use transform="matrix(0.0087890625,0,0,0.0087890625,32.9501953125,0)" xlink:href="#bt"/><use transform="matrix(0.0087890625,0,0,0.0087890625,43.7431640625,0)" xlink:href="#aK"/><use transform="matrix(0.0087890625,0,0,0.0087890625,50.80078125,0)" xlink:href="#bI"/></g><path fill="#333" d="M180 0v-1490h190v644h782v-644h190V0h-190v-678H370V0H180" id="bP"/><g id="R"><use transform="matrix(0.008173828125000001,0,0,0.008173828125000001,0,0)" xlink:href="#bP"/><use transform="matrix(0.008173828125000001,0,0,0.008173828125000001,12.440566406250001,0)" xlink:href="#bq"/><use transform="matrix(0.008173828125000001,0,0,0.008173828125000001,16.494785156250003,0)" xlink:href="#aO"/><use transform="matrix(0.008173828125000001,0,0,0.008173828125000001,25.330693359375005,0)" xlink:href="#aW"/><use transform="matrix(0.008173828125000001,0,0,0.008173828125000001,30.643681640625005,0)" xlink:href="#bh"/><use transform="matrix(0.008173828125000001,0,0,0.008173828125000001,40.681142578125005,0)" xlink:href="#bd"/><use transform="matrix(0.008173828125000001,0,0,0.008173828125000001,47.244726562500006,0)" xlink:href="#aV"/><use transform="matrix(0.008173828125000001,0,0,0.008173828125000001,56.734541015625005,0)" xlink:href="#aR"/><use transform="matrix(0.008173828125000001,0,0,0.008173828125000001,61.230146484375005,0)" xlink:href="#aS"/></g><path d="M158 418v-1536h174v179h20c37-59 106-193 324-193 279 0 474 222 474 576 0 356-194 580-473 580-213 0-288-135-325-197h-14v591H158zm492-555c209 0 317-186 317-421 0-232-105-413-317-413-206 0-314 166-314 413 0 249 111 421 314 421" id="bQ"/><path d="M158 0v-1490h180v865h22l478-493h223L593-638 1096 0H865L456-523 338-412V0H158" id="bR"/><g id="S"><use transform="matrix(0.0087890625,0,0,0.0087890625,0,0)" xlink:href="#br"/><use transform="matrix(0.0087890625,0,0,0.0087890625,11.548828125,0)" xlink:href="#bQ"/><use transform="matrix(0.0087890625,0,0,0.0087890625,22.5703125,0)" xlink:href="#aK"/><use transform="matrix(0.0087890625,0,0,0.0087890625,29.6279296875,0)" xlink:href="#bO"/><use transform="matrix(0.0087890625,0,0,0.0087890625,33.9873046875,0)" xlink:href="#bs"/><use transform="matrix(0.0087890625,0,0,0.0087890625,44.6220703125,0)" xlink:href="#bR"/><use transform="matrix(0.0087890625,0,0,0.0087890625,54.5009765625,0)" xlink:href="#bz"/><use transform="matrix(0.0087890625,0,0,0.0087890625,58.8603515625,0)" xlink:href="#aJ"/><use transform="matrix(0.0087890625,0,0,0.0087890625,69.3544921875,0)" xlink:href="#aK"/></g><path fill="#333" d="M158 418v-1536h174v179h20c37-59 106-193 324-193 279 0 474 222 474 576 0 356-194 580-473 580-213 0-288-135-325-197h-14v591H158zm492-555c209 0 317-186 317-421 0-232-105-413-317-413-206 0-314 166-314 413 0 249 111 421 314 421" id="bS"/><path fill="#333" d="M158 0v-1490h180v865h22l478-493h223L593-638 1096 0H865L456-523 338-412V0H158" id="bT"/><g id="T"><use transform="matrix(0.008173828125000001,0,0,0.008173828125000001,0,0)" xlink:href="#aU"/><use transform="matrix(0.008173828125000001,0,0,0.008173828125000001,10.740410156250002,0)" xlink:href="#bS"/><use transform="matrix(0.008173828125000001,0,0,0.008173828125000001,20.990390625000003,0)" xlink:href="#bd"/><use transform="matrix(0.008173828125000001,0,0,0.008173828125000001,27.553974609375004,0)" xlink:href="#bq"/><use transform="matrix(0.008173828125000001,0,0,0.008173828125000001,31.608193359375004,0)" xlink:href="#bj"/><use transform="matrix(0.008173828125000001,0,0,0.008173828125000001,41.498525390625005,0)" xlink:href="#bT"/><use transform="matrix(0.008173828125000001,0,0,0.008173828125000001,50.685908203125,0)" xlink:href="#bx"/><use transform="matrix(0.008173828125000001,0,0,0.008173828125000001,54.740126953125014,0)" xlink:href="#aP"/><use transform="matrix(0.008173828125000001,0,0,0.008173828125000001,64.49967773437501,0)" xlink:href="#bd"/><use transform="matrix(0.008173828125000001,0,0,0.008173828125000001,71.06326171875001,0)" xlink:href="#aR"/><use transform="matrix(0.008173828125000001,0,0,0.008173828125000001,75.55886718750001,0)" xlink:href="#aS"/></g><g id="U"><use transform="matrix(0.008173828125000001,0,0,0.008173828125000001,0,0)" xlink:href="#aU"/><use transform="matrix(0.008173828125000001,0,0,0.008173828125000001,10.740410156250002,0)" xlink:href="#aV"/><use transform="matrix(0.008173828125000001,0,0,0.008173828125000001,20.148486328125003,0)" xlink:href="#aO"/><use transform="matrix(0.008173828125000001,0,0,0.008173828125000001,28.984394531250004,0)" xlink:href="#aW"/><use transform="matrix(0.008173828125000001,0,0,0.008173828125000001,34.297382812500004,0)" xlink:href="#aP"/><use transform="matrix(0.008173828125000001,0,0,0.008173828125000001,44.05693359375,0)" xlink:href="#aX"/></g><g id="V"><use transform="matrix(0.0087890625,0,0,0.0087890625,0,0)" xlink:href="#aT"/><use transform="matrix(0.0087890625,0,0,0.0087890625,10.1865234375,0)" xlink:href="#bA"/><use transform="matrix(0.0087890625,0,0,0.0087890625,20.2939453125,0)" xlink:href="#bs"/></g><path fill="#333" d="M180 0v-1490h901v168H370v510h643v168H370V0H180" id="bU"/><g id="W"><use transform="matrix(0.008173828125000001,0,0,0.008173828125000001,0,0)" xlink:href="#bU"/><use transform="matrix(0.008173828125000001,0,0,0.008173828125000001,9.473466796875002,0)" xlink:href="#bb"/><use transform="matrix(0.008173828125000001,0,0,0.008173828125000001,18.873369140625,0)" xlink:href="#bj"/><use transform="matrix(0.008173828125000001,0,0,0.008173828125000001,28.763701171875002,0)" xlink:href="#aR"/><use transform="matrix(0.008173828125000001,0,0,0.008173828125000001,33.259306640625006,0)" xlink:href="#aS"/></g><g id="X"><use transform="matrix(0.0087890625,0,0,0.0087890625,0,0)" xlink:href="#bk"/><use transform="matrix(0.0087890625,0,0,0.0087890625,4.833984375,0)" xlink:href="#bs"/><use transform="matrix(0.0087890625,0,0,0.0087890625,15.46875,0)" xlink:href="#bD"/><use transform="matrix(0.0087890625,0,0,0.0087890625,25.751953125,0)" xlink:href="#bO"/><use transform="matrix(0.0087890625,0,0,0.0087890625,30.111328125,0)" xlink:href="#bf"/><use transform="matrix(0.0087890625,0,0,0.0087890625,41.1328125,0)" xlink:href="#aJ"/><use transform="matrix(0.0087890625,0,0,0.0087890625,51.626953125,0)" xlink:href="#bs"/><use transform="matrix(0.0087890625,0,0,0.0087890625,62.26171875,0)" xlink:href="#bl"/></g><g id="Y"><use transform="matrix(0.008173828125000001,0,0,0.008173828125000001,0,0)" xlink:href="#aR"/><use transform="matrix(0.008173828125000001,0,0,0.008173828125000001,4.495605468750001,0)" xlink:href="#bj"/><use transform="matrix(0.008173828125000001,0,0,0.008173828125000001,14.3859375,0)" xlink:href="#bo"/><use transform="matrix(0.008173828125000001,0,0,0.008173828125000001,23.949316406250002,0)" xlink:href="#bq"/><use transform="matrix(0.008173828125000001,0,0,0.008173828125000001,28.003535156250003,0)" xlink:href="#aQ"/><use transform="matrix(0.008173828125000001,0,0,0.008173828125000001,38.253515625000006,0)" xlink:href="#aP"/><use transform="matrix(0.008173828125000001,0,0,0.008173828125000001,48.013066406250005,0)" xlink:href="#bj"/><use transform="matrix(0.008173828125000001,0,0,0.008173828125000001,57.9033984375,0)" xlink:href="#aW"/><use transform="matrix(0.008173828125000001,0,0,0.008173828125000001,63.37986328125,0)" xlink:href="#aR"/><use transform="matrix(0.008173828125000001,0,0,0.008173828125000001,67.87546875000001,0)" xlink:href="#aS"/></g><g id="Z"><use transform="matrix(0.008173828125000001,0,0,0.008173828125000001,0,0)" xlink:href="#bP"/><use transform="matrix(0.008173828125000001,0,0,0.008173828125000001,12.440566406250001,0)" xlink:href="#bq"/><use transform="matrix(0.008173828125000001,0,0,0.008173828125000001,16.494785156250003,0)" xlink:href="#aO"/><use transform="matrix(0.008173828125000001,0,0,0.008173828125000001,25.330693359375005,0)" xlink:href="#bh"/><use transform="matrix(0.008173828125000001,0,0,0.008173828125000001,35.368154296875005,0)" xlink:href="#bd"/><use transform="matrix(0.008173828125000001,0,0,0.008173828125000001,41.931738281250006,0)" xlink:href="#aV"/><use transform="matrix(0.008173828125000001,0,0,0.008173828125000001,51.421552734375005,0)" xlink:href="#aR"/><use transform="matrix(0.008173828125000001,0,0,0.008173828125000001,55.917158203125005,0)" xlink:href="#aS"/></g><path d="M338-670V0H158v-1490h180v566c73-149 190-208 336-208 226 0 379 139 379 422V0H872v-695c0-172-96-275-252-275-161 0-282 109-282 300" id="bV"/><path d="M180 0v-1490h224l606 953c40 63 108 177 176 312-27-437-7-821-13-1265h190V0h-226C860-448 622-778 356-1262c27 476 11 792 15 1262H180" id="bW"/><path d="M677 24c-213 0-288-135-325-197h-20V0H158v-1490h180v551h14c37-59 106-193 324-193 279 0 474 222 474 576 0 356-194 580-473 580zm-27-161c209 0 317-186 317-421 0-232-105-413-317-413-206 0-314 166-314 413 0 249 111 421 314 421" id="bX"/><g id="aa"><use transform="matrix(0.0087890625,0,0,0.0087890625,0,0)" xlink:href="#aL"/><use transform="matrix(0.0087890625,0,0,0.0087890625,11.49609375,0)" xlink:href="#bV"/><use transform="matrix(0.0087890625,0,0,0.0087890625,22.1396484375,0)" xlink:href="#bt"/><use transform="matrix(0.0087890625,0,0,0.0087890625,32.9326171875,0)" xlink:href="#bs"/><use transform="matrix(0.0087890625,0,0,0.0087890625,43.5673828125,0)" xlink:href="#aJ"/><use transform="matrix(0.0087890625,0,0,0.0087890625,54.0615234375,0)" xlink:href="#bW"/><use transform="matrix(0.0087890625,0,0,0.0087890625,67.623046875,0)" xlink:href="#bE"/><use transform="matrix(0.0087890625,0,0,0.0087890625,78.2666015625,0)" xlink:href="#bm"/><use transform="matrix(0.0087890625,0,0,0.0087890625,94.0341796875,0)" xlink:href="#bX"/><use transform="matrix(0.0087890625,0,0,0.0087890625,105.0556640625,0)" xlink:href="#aJ"/><use transform="matrix(0.0087890625,0,0,0.0087890625,115.5498046875,0)" xlink:href="#aK"/></g><path fill="#333" d="M338-670V0H158v-1490h180v566c73-149 190-208 336-208 226 0 379 139 379 422V0H872v-695c0-172-96-275-252-275-161 0-282 109-282 300" id="bY"/><g id="ab"><use transform="matrix(0.008173828125000001,0,0,0.008173828125000001,0,0)" xlink:href="#bn"/><use transform="matrix(0.008173828125000001,0,0,0.008173828125000001,10.691367187500001,0)" xlink:href="#bY"/><use transform="matrix(0.008173828125000001,0,0,0.008173828125000001,20.589873046875002,0)" xlink:href="#ba"/><use transform="matrix(0.008173828125000001,0,0,0.008173828125000001,33.20208984375,0)" xlink:href="#bi"/><use transform="matrix(0.008173828125000001,0,0,0.008173828125000001,43.100595703125,0)" xlink:href="#aX"/><use transform="matrix(0.008173828125000001,0,0,0.008173828125000001,57.76444335937501,0)" xlink:href="#bM"/><use transform="matrix(0.008173828125000001,0,0,0.008173828125000001,68.014423828125,0)" xlink:href="#aP"/><use transform="matrix(0.008173828125000001,0,0,0.008173828125000001,77.773974609375,0)" xlink:href="#bd"/><use transform="matrix(0.008173828125000001,0,0,0.008173828125000001,84.33755859375,0)" xlink:href="#aR"/><use transform="matrix(0.008173828125000001,0,0,0.008173828125000001,88.83316406250002,0)" xlink:href="#aS"/></g><g id="ac"><use transform="matrix(0.008173828125000001,0,0,0.008173828125000001,0,0)" xlink:href="#ba"/><use transform="matrix(0.008173828125000001,0,0,0.008173828125000001,12.612216796875002,0)" xlink:href="#bi"/><use transform="matrix(0.008173828125000001,0,0,0.008173828125000001,22.510722656250003,0)" xlink:href="#aX"/><use transform="matrix(0.008173828125000001,0,0,0.008173828125000001,37.17457031250001,0)" xlink:href="#bM"/><use transform="matrix(0.008173828125000001,0,0,0.008173828125000001,47.42455078125001,0)" xlink:href="#aP"/><use transform="matrix(0.008173828125000001,0,0,0.008173828125000001,57.18410156250001,0)" xlink:href="#bd"/></g><path d="M678-1118v154H420V0H240v-964H20v-154h220v-149c0-194 155-293 318-293 85 0 141 18 168 30l-50 154c-19-6-47-17-97-17-111 0-159 58-159 166v109h258" id="bZ"/><g id="ad"><use transform="matrix(0.0087890625,0,0,0.0087890625,0,0)" xlink:href="#bW"/><use transform="matrix(0.0087890625,0,0,0.0087890625,13.5615234375,0)" xlink:href="#bt"/><use transform="matrix(0.0087890625,0,0,0.0087890625,24.3544921875,0)" xlink:href="#bl"/><use transform="matrix(0.0087890625,0,0,0.0087890625,30.2431640625,0)" xlink:href="#bO"/><use transform="matrix(0.0087890625,0,0,0.0087890625,34.6025390625,0)" xlink:href="#bZ"/><use transform="matrix(0.0087890625,0,0,0.0087890625,41.2646484375,0)" xlink:href="#bO"/><use transform="matrix(0.0087890625,0,0,0.0087890625,45.6240234375,0)" xlink:href="#bD"/><use transform="matrix(0.0087890625,0,0,0.0087890625,56.0830078125,0)" xlink:href="#bA"/><use transform="matrix(0.0087890625,0,0,0.0087890625,66.1904296875,0)" xlink:href="#bD"/><use transform="matrix(0.0087890625,0,0,0.0087890625,76.4736328125,0)" xlink:href="#bl"/><use transform="matrix(0.0087890625,0,0,0.0087890625,82.3623046875,0)" xlink:href="#bO"/><use transform="matrix(0.0087890625,0,0,0.0087890625,86.7216796875,0)" xlink:href="#bt"/><use transform="matrix(0.0087890625,0,0,0.0087890625,97.5146484375,0)" xlink:href="#bs"/></g><g id="ae"><use transform="matrix(0.008173828125000001,0,0,0.008173828125000001,0,0)" xlink:href="#bc"/><use transform="matrix(0.008173828125000001,0,0,0.008173828125000001,11.549619140625001,0)" xlink:href="#bx"/><use transform="matrix(0.008173828125000001,0,0,0.008173828125000001,15.603837890625002,0)" xlink:href="#aP"/><use transform="matrix(0.008173828125000001,0,0,0.008173828125000001,25.363388671875,0)" xlink:href="#bd"/><use transform="matrix(0.008173828125000001,0,0,0.008173828125000001,31.92697265625,0)" xlink:href="#aW"/></g><g id="af"><use transform="matrix(0.0087890625,0,0,0.0087890625,0,0)" xlink:href="#aY"/><use transform="matrix(0.0087890625,0,0,0.0087890625,10.8193359375,0)" xlink:href="#bm"/><use transform="matrix(0.0087890625,0,0,0.0087890625,26.5869140625,0)" xlink:href="#bA"/><use transform="matrix(0.0087890625,0,0,0.0087890625,36.6943359375,0)" xlink:href="#bO"/><use transform="matrix(0.0087890625,0,0,0.0087890625,41.0537109375,0)" xlink:href="#bz"/></g><path fill="#333" d="M180 0v-1490h908v168H370v486h669v168H370v500h727V0H180" id="ca"/><g id="ag"><use transform="matrix(0.008173828125000001,0,0,0.008173828125000001,0,0)" xlink:href="#ca"/><use transform="matrix(0.008173828125000001,0,0,0.008173828125000001,10.061982421875001,0)" xlink:href="#aX"/><use transform="matrix(0.008173828125000001,0,0,0.008173828125000001,24.725830078125004,0)" xlink:href="#bb"/><use transform="matrix(0.008173828125000001,0,0,0.008173828125000001,34.12573242187501,0)" xlink:href="#bq"/><use transform="matrix(0.008173828125000001,0,0,0.008173828125000001,38.179951171875004,0)" xlink:href="#bx"/><use transform="matrix(0.008173828125000001,0,0,0.008173828125000001,42.23416992187501,0)" xlink:href="#bB"/><use transform="matrix(0.008173828125000001,0,0,0.008173828125000001,50.43251953125001,0)" xlink:href="#aR"/><use transform="matrix(0.008173828125000001,0,0,0.008173828125000001,54.92812500000001,0)" xlink:href="#aS"/></g><g id="ah"><use transform="matrix(0.008173828125000001,0,0,0.008173828125000001,0,0)" xlink:href="#bb"/><use transform="matrix(0.008173828125000001,0,0,0.008173828125000001,9.399902343750002,0)" xlink:href="#bo"/><use transform="matrix(0.008173828125000001,0,0,0.008173828125000001,18.96328125,0)" xlink:href="#bo"/><use transform="matrix(0.008173828125000001,0,0,0.008173828125000001,28.526660156250003,0)" xlink:href="#bh"/><use transform="matrix(0.008173828125000001,0,0,0.008173828125000001,38.56412109375,0)" xlink:href="#bi"/><use transform="matrix(0.008173828125000001,0,0,0.008173828125000001,48.462626953125,0)" xlink:href="#bj"/><use transform="matrix(0.008173828125000001,0,0,0.008173828125000001,58.35295898437501,0)" xlink:href="#aW"/></g></defs></g></svg>
