<svg xmlns="http://www.w3.org/2000/svg" xmlns:xlink="http://www.w3.org/1999/xlink" version="1.1" viewBox="0 0 2402 3219" style="background: #111111"><defs joint-selector="defs"></defs><g joint-selector="layers"  transform="matrix(1,0,0,1,0,0)"><g ></g><g ><!--z-index:1--><!--z-index:2--><!--z-index:3--><!--z-index:4--><!--z-index:5--><!--z-index:6--><!--z-index:7--><!--z-index:8--><!--z-index:9--><!--z-index:10--><!--z-index:11--><!--z-index:12--><!--z-index:13--><!--z-index:14--><!--z-index:15--><!--z-index:16--><!--z-index:17--><!--z-index:18--><!--z-index:19--><!--z-index:20--><!--z-index:21--><!--z-index:22--><!--z-index:23--><!--z-index:24--><!--z-index:25--><!--z-index:26--><!--z-index:27--><!--z-index:28--><!--z-index:29--><!--z-index:30--><g   id="j_47"  transform="translate(20,3175)"><g id="v-620"><text  id="v-621" font-size="24px" xml:space="preserve" y="0.8em" font-weight="normal" text-anchor="start" fill="#cccccc" pointer-events="none" display="block" font-family="Open Sans, Tahoma, Arial"><tspan dy="0" >miércoles, 22 de abril de 2026, 6:59 p. m. hora estándar de Perú</tspan></text></g></g><!--z-index:31--><g   id="j_46"  transform="translate(20,3129)"><g id="v-618"><text  id="v-619" font-size="36px" xml:space="preserve" y="0.8em" font-weight="normal" text-anchor="start" fill="#cccccc" pointer-events="none" display="block" font-family="Open Sans, Tahoma, Arial"><tspan dy="0" >Component View: SMARTGAS PLATFORM - GESTIÓN DE ALERTAS</tspan></text></g></g><!--z-index:32--><g   id="j_49"  transform="translate(199,160)" style=""><g id="v-632"><rect  id="v-633" width="1280" height="2819" rx="20" ry="20" stroke-width="2" pointer-events="none" stroke="#0f5eaa" fill="#111111" stroke-dasharray=""></rect><text  id="v-634" font-size="33.599999999999994px" xml:space="preserve" y="2780" font-weight="bold" text-anchor="start" pointer-events="visible" font-family="Open Sans, Tahoma, Arial" fill="#1168bd" transform="matrix(1,0,0,1,15,0)"><tspan dy="0" >SMARTGAS PLATFORM</tspan></text><text  id="v-635" font-size="16.799999999999997px" xml:space="preserve" y="2804" font-weight="normal" text-anchor="start" pointer-events="visible" font-family="Open Sans, Tahoma, Arial" fill="#1168bd" transform="matrix(1,0,0,1,15,0)"><tspan dy="0" >[Software System]</tspan></text><image  id="v-636" pointer-events="visible"></image></g></g><!--z-index:33--><g   id="j_48"  transform="translate(614,180)" style=""><g  id="v-625" style="opacity: 1;"><rect  id="v-626" rx="20" ry="20" stroke-width="2" pointer-events="visiblePainted" fill="#438dd5" stroke="#3c7fc0" stroke-dasharray="" width="450" height="300"></rect><text  id="v-627" font-size="33.599999999999994px" xml:space="preserve" y="101.30000000000001" font-weight="bold" text-anchor="middle" pointer-events="visible" font-family="Open Sans, Tahoma, Arial" fill="#ffffff" dominant-baseline="hanging" transform="matrix(1,0,0,1,225,0)"><tspan dy="0" >RESTFUL API</tspan></text><text  id="v-628" font-size="16.799999999999997px" xml:space="preserve" y="142.9" text-anchor="middle" font-family="Open Sans, Tahoma, Arial" fill="#ffffff" dominant-baseline="hanging" transform="matrix(1,0,0,1,225,0)" style="display: block;"><tspan dy="0" >[Container: ASP.NET Core / C#]</tspan></text><text  id="v-629" font-size="24px" xml:space="preserve" y="174.7" text-anchor="middle" font-family="Open Sans, Tahoma, Arial" fill="#ffffff" dominant-baseline="hanging" transform="matrix(1,0,0,1,225,0)" style="display: block;"><tspan dy="0" >API Gateway y enrutador</tspan></text><g  id="v-630" color="#ffffff" transform="matrix(1,0,0,1,222.5,268)" display="none"><g ></g><g ></g><g ></g><g ></g></g><image  id="v-631"></image></g></g><!--z-index:34--><g   id="j_51"  transform="translate(219,760)" style=""><g id="v-647"><rect  id="v-648" width="1240" height="1619" rx="20" ry="20" stroke-width="2" pointer-events="none" stroke="#3c7fc0" fill="#111111" stroke-dasharray=""></rect><text  id="v-649" font-size="33.599999999999994px" xml:space="preserve" y="1580" font-weight="bold" text-anchor="start" pointer-events="visible" font-family="Open Sans, Tahoma, Arial" fill="#438dd5" transform="matrix(1,0,0,1,15,0)"><tspan dy="0" >GESTIÓN DE ALERTAS</tspan></text><text  id="v-650" font-size="16.799999999999997px" xml:space="preserve" y="1604" font-weight="normal" text-anchor="start" pointer-events="visible" font-family="Open Sans, Tahoma, Arial" fill="#438dd5" transform="matrix(1,0,0,1,15,0)"><tspan dy="0" >[Container]</tspan></text><image  id="v-651" pointer-events="visible"></image></g></g><!--z-index:35--><g   id="j_55"  transform="translate(614,2580)" style=""><g  id="v-694" style="opacity: 1;"><path  d="M 0,30 a 225,30 0,0,0 450 0 a 225,30 0,0,0 -450 0 l 0,240 a 225,30 0,0,0 450 0 l 0,-240" id="v-695" stroke-width="2" pointer-events="visiblePainted" fill="#03fca9" stroke="#03e398" stroke-dasharray=""></path><rect  id="v-696" stroke-width="0" pointer-events="visiblePainted" fill="none" stroke="none" width="450" height="270" x="0" y="30"></rect><text  id="v-697" font-size="33.599999999999994px" xml:space="preserve" y="116.30000000000001" font-weight="bold" text-anchor="middle" pointer-events="visible" font-family="Open Sans, Tahoma, Arial" fill="#ffffff" dominant-baseline="hanging" transform="matrix(1,0,0,1,225,0)"><tspan dy="0" >DATABASE</tspan></text><text  id="v-698" font-size="16.799999999999997px" xml:space="preserve" y="157.9" text-anchor="middle" font-family="Open Sans, Tahoma, Arial" fill="#ffffff" dominant-baseline="hanging" transform="matrix(1,0,0,1,225,0)" style="display: block;"><tspan dy="0" >[Container: SQL Server / PostgreSQL]</tspan></text><text  id="v-699" font-size="24px" xml:space="preserve" y="189.7" text-anchor="middle" font-family="Open Sans, Tahoma, Arial" fill="#ffffff" dominant-baseline="hanging" transform="matrix(1,0,0,1,225,0)" style="display: block;"><tspan dy="0" >Base de datos principal</tspan></text><g  id="v-700" font-weight="normal" text-anchor="middle" color="#ffffff" transform="matrix(1,0,0,1,222.5,268)" display="none"><g ></g><g ></g><g ></g><g ></g></g><image  id="v-701"></image></g></g><!--z-index:36--><g   id="j_50"  transform="translate(614,780)" style=""><g  id="v-640" style="opacity: 1;"><rect  id="v-641" rx="20" ry="20" stroke-width="2" pointer-events="visiblePainted" fill="#85bbf0" stroke="#78a8d8" stroke-dasharray="" width="450" height="300"></rect><text  id="v-642" font-size="33.599999999999994px" xml:space="preserve" y="101.30000000000001" font-weight="bold" text-anchor="middle" pointer-events="visible" font-family="Open Sans, Tahoma, Arial" fill="#000000" dominant-baseline="hanging" transform="matrix(1,0,0,1,225,0)"><tspan dy="0" >CONTROLLER</tspan></text><text  id="v-643" font-size="16.799999999999997px" xml:space="preserve" y="142.9" text-anchor="middle" font-family="Open Sans, Tahoma, Arial" fill="#000000" dominant-baseline="hanging" transform="matrix(1,0,0,1,225,0)" style="display: block;"><tspan dy="0" >[Component]</tspan></text><text  id="v-644" font-size="24px" xml:space="preserve" y="174.7" text-anchor="middle" font-family="Open Sans, Tahoma, Arial" fill="#000000" dominant-baseline="hanging" transform="matrix(1,0,0,1,225,0)" style="display: block;"><tspan dy="0" >Expone los endpoints de alertas</tspan></text><g  id="v-645" color="#000000" transform="matrix(1,0,0,1,222.5,268)" display="none"><g ></g><g ></g><g ></g><g ></g></g><image  id="v-646"></image></g></g><!--z-index:37--><g   id="j_52"  transform="translate(239,1380)" style=""><g  id="v-658" style="opacity: 1;"><rect  id="v-659" rx="20" ry="20" stroke-width="2" pointer-events="visiblePainted" fill="#85bbf0" stroke="#78a8d8" stroke-dasharray="" width="450" height="300"></rect><text  id="v-660" font-size="33.599999999999994px" xml:space="preserve" y="86.9" font-weight="bold" text-anchor="middle" pointer-events="visible" font-family="Open Sans, Tahoma, Arial" fill="#000000" dominant-baseline="hanging" transform="matrix(1,0,0,1,225,0)"><tspan dy="0" >EVALUACIÓN DE REGLAS</tspan></text><text  id="v-661" font-size="16.799999999999997px" xml:space="preserve" y="128.5" text-anchor="middle" font-family="Open Sans, Tahoma, Arial" fill="#000000" dominant-baseline="hanging" transform="matrix(1,0,0,1,225,0)" style="display: block;"><tspan dy="0" >[Component]</tspan></text><text  id="v-662" font-size="24px" xml:space="preserve" y="160.3" text-anchor="middle" font-family="Open Sans, Tahoma, Arial" fill="#000000" dominant-baseline="hanging" transform="matrix(1,0,0,1,225,0)" style="display: block;"><tspan dy="0" >Detecta anomalías de</tspan><tspan dy="1.2em" x="0" >gas/temperatura</tspan></text><g  id="v-663" color="#000000" transform="matrix(1,0,0,1,222.5,268)" display="none"><g ></g><g ></g><g ></g><g ></g></g><image  id="v-664"></image></g></g><!--z-index:38--><g   id="j_53"  transform="translate(989,1380)" style=""><g  id="v-671" style="opacity: 1;"><rect  id="v-672" rx="20" ry="20" stroke-width="2" pointer-events="visiblePainted" fill="#85bbf0" stroke="#78a8d8" stroke-dasharray="" width="450" height="300"></rect><text  id="v-673" font-size="33.599999999999994px" xml:space="preserve" y="81.14000000000001" font-weight="bold" text-anchor="middle" pointer-events="visible" font-family="Open Sans, Tahoma, Arial" fill="#000000" dominant-baseline="hanging" transform="matrix(1,0,0,1,225,0)"><tspan dy="0" >DESPACHADOR DE</tspan><tspan dy="1.2em" x="0" >NOTIFICACIONES</tspan></text><text  id="v-674" font-size="16.799999999999997px" xml:space="preserve" y="163.06" text-anchor="middle" font-family="Open Sans, Tahoma, Arial" fill="#000000" dominant-baseline="hanging" transform="matrix(1,0,0,1,225,0)" style="display: block;"><tspan dy="0" >[Component]</tspan></text><text  id="v-675" font-size="24px" xml:space="preserve" y="194.86" text-anchor="middle" font-family="Open Sans, Tahoma, Arial" fill="#000000" dominant-baseline="hanging" transform="matrix(1,0,0,1,225,0)" style="display: block;"><tspan dy="0" >Envía alertas críticas</tspan></text><g  id="v-676" color="#000000" transform="matrix(1,0,0,1,222.5,268)" display="none"><g ></g><g ></g><g ></g><g ></g></g><image  id="v-677"></image></g></g><!--z-index:39--><g   id="j_54"  transform="translate(614,1980)" style=""><g  id="v-681" style="opacity: 1;"><rect  id="v-682" rx="20" ry="20" stroke-width="2" pointer-events="visiblePainted" fill="#85bbf0" stroke="#78a8d8" stroke-dasharray="" width="450" height="300"></rect><text  id="v-683" font-size="33.599999999999994px" xml:space="preserve" y="101.30000000000001" font-weight="bold" text-anchor="middle" pointer-events="visible" font-family="Open Sans, Tahoma, Arial" fill="#000000" dominant-baseline="hanging" transform="matrix(1,0,0,1,225,0)"><tspan dy="0" >CONECTOR</tspan></text><text  id="v-684" font-size="16.799999999999997px" xml:space="preserve" y="142.9" text-anchor="middle" font-family="Open Sans, Tahoma, Arial" fill="#000000" dominant-baseline="hanging" transform="matrix(1,0,0,1,225,0)" style="display: block;"><tspan dy="0" >[Component]</tspan></text><text  id="v-685" font-size="24px" xml:space="preserve" y="174.7" text-anchor="middle" font-family="Open Sans, Tahoma, Arial" fill="#000000" dominant-baseline="hanging" transform="matrix(1,0,0,1,225,0)" style="display: block;"><tspan dy="0" >Acceso a datos de alertas</tspan></text><g  id="v-686" color="#000000" transform="matrix(1,0,0,1,222.5,268)" display="none"><g ></g><g ></g><g ></g><g ></g></g><image  id="v-687"></image></g></g><!--z-index:40--><g   id="j_56"  transform="translate(1751,1980)" style=""><g  id="v-708" style="opacity: 1;"><rect  id="v-709" rx="20" ry="20" stroke-width="2" pointer-events="visiblePainted" fill="#f2e85a" stroke="#dad151" stroke-dasharray="" width="450" height="300"></rect><text  id="v-710" font-size="33.599999999999994px" xml:space="preserve" y="66.74000000000001" font-weight="bold" text-anchor="middle" pointer-events="visible" font-family="Open Sans, Tahoma, Arial" fill="#333333" dominant-baseline="hanging" transform="matrix(1,0,0,1,225,0)"><tspan dy="0" >SERVICIO DE</tspan><tspan dy="1.2em" x="0" >NOTIFICACIONES</tspan></text><text  id="v-711" font-size="16.799999999999997px" xml:space="preserve" y="148.66" text-anchor="middle" font-family="Open Sans, Tahoma, Arial" fill="#333333" dominant-baseline="hanging" transform="matrix(1,0,0,1,225,0)" style="display: block;"><tspan dy="0" >[Software System]</tspan></text><text  id="v-712" font-size="24px" xml:space="preserve" y="180.45999999999998" text-anchor="middle" font-family="Open Sans, Tahoma, Arial" fill="#333333" dominant-baseline="hanging" transform="matrix(1,0,0,1,225,0)" style="display: block;"><tspan dy="0" >Servicio externo de mensajería</tspan><tspan dy="1.2em" x="0" >(SMS/Push)</tspan></text><g  id="v-713" color="#333333" transform="matrix(1,0,0,1,222.5,268)" display="none"><g ></g><g ></g><g ></g><g ></g></g><image  id="v-714"></image></g></g><!--z-index:41--><g   id="j_57" ><path  stroke="#cccccc" d="M 745 1080 L 558 1380" id="v-724" stroke-width="2" stroke-dasharray="8 8" fill="none" style="opacity: 1;"></path><path  fill="black" stroke="black" d="M 0 0 0 0" transform="matrix(-0.5299989865422611,0.8479982749181604,-0.8479982749181604,-0.5299989865422611,745.25,1080)"></path><path  fill="#cccccc" stroke="#cccccc" d="M 20 0 L 0 10 L 20 20 z" id="v-726" transform="matrix(0.5299987607066414,-0.847998416065398,0.847998416065398,0.5299987607066414,549.2700160252481,1374.700016084838)" style="opacity: 1;"></path><path  d="M 745 1080 L 558 1380" id="v-725" fill="none" style="cursor: auto; pointer-events: visiblepainted;"></path><g ><g id="v-718"  label-idx="0" cursor="move" transform="matrix(1,0,0,1,651.5,1230)" style="cursor: default; opacity: 1;"><rect joint-selector="rect" id="v-721" fill="#111111" rx="3" ry="3" pointer-events="none" width="45.58306884765625" height="33.357513427734375" transform="matrix(1,0,0,1,-21.1,-16.7)"></rect><text joint-selector="text" id="v-720" font-size="24px" xml:space="preserve" y="0.8em" fill="#cccccc" text-anchor="middle" pointer-events="none" font-family="Open Sans, Tahoma, Arial" font-weight="normal" transform="matrix(1,0,0,1,0,-10.9)"><tspan dy="0" >Usa</tspan></text></g><g id="v-719"  label-idx="1" cursor="move" transform="matrix(1,0,0,1,641.5,1242)" style="cursor: default; opacity: 1;"><rect joint-selector="rect" id="v-723" fill="#ffffff" rx="3" ry="3"  width="0" height="0" transform="matrix(1,0,0,1,0,0)" display="none"></rect><text joint-selector="text" id="v-722" fill="#000000" font-size="14" text-anchor="middle" pointer-events="none"></text></g></g><g  display="none" style="display: none;"></g><g  id="v-728" display="none"><g  id="v-716"><path  end="source" d="M 26 0 L 0 13 L 26 26 z"></path></g><g  id="v-717"><path  end="target" d="M 26 0 L 0 13 L 26 26 z"></path></g></g><g  id="v-727" display="none"><g  id="v-715" transform="translate(723.8407411961142, 1113.9453349794958) "><g  event="remove"><circle r="11"></circle><path transform="scale(.8) translate(-16, -16)" d="M24.778,21.419 19.276,15.917 24.777,10.415 21.949,7.585 16.447,13.087 10.945,7.585 8.117,10.415 13.618,15.917 8.116,21.419 10.946,24.248 16.447,18.746 21.948,24.248z"></path><title>Remove link.</title></g><g  event="link:options"><circle r="11" transform="translate(25)"></circle><path fill="white" transform="scale(.55) translate(29, -16)" d="M31.229,17.736c0.064-0.571,0.104-1.148,0.104-1.736s-0.04-1.166-0.104-1.737l-4.377-1.557c-0.218-0.716-0.504-1.401-0.851-2.05l1.993-4.192c-0.725-0.91-1.549-1.734-2.458-2.459l-4.193,1.994c-0.647-0.347-1.334-0.632-2.049-0.849l-1.558-4.378C17.165,0.708,16.588,0.667,16,0.667s-1.166,0.041-1.737,0.105L12.707,5.15c-0.716,0.217-1.401,0.502-2.05,0.849L6.464,4.005C5.554,4.73,4.73,5.554,4.005,6.464l1.994,4.192c-0.347,0.648-0.632,1.334-0.849,2.05l-4.378,1.557C0.708,14.834,0.667,15.412,0.667,16s0.041,1.165,0.105,1.736l4.378,1.558c0.217,0.715,0.502,1.401,0.849,2.049l-1.994,4.193c0.725,0.909,1.549,1.733,2.459,2.458l4.192-1.993c0.648,0.347,1.334,0.633,2.05,0.851l1.557,4.377c0.571,0.064,1.148,0.104,1.737,0.104c0.588,0,1.165-0.04,1.736-0.104l1.558-4.377c0.715-0.218,1.399-0.504,2.049-0.851l4.193,1.993c0.909-0.725,1.733-1.549,2.458-2.458l-1.993-4.193c0.347-0.647,0.633-1.334,0.851-2.049L31.229,17.736zM16,20.871c-2.69,0-4.872-2.182-4.872-4.871c0-2.69,2.182-4.872,4.872-4.872c2.689,0,4.871,2.182,4.871,4.872C20.871,18.689,18.689,20.871,16,20.871z"></path><title>Link options.</title></g></g></g></g><!--z-index:42--><g   id="j_58" ><path  stroke="#cccccc" d="M 933 1080 L 1120 1380" id="v-738" stroke-width="2" stroke-dasharray="8 8" fill="none" style="opacity: 1;"></path><path  fill="black" stroke="black" d="M 0 0 0 0" transform="matrix(0.5299989300833599,0.8479983102049753,-0.8479983102049753,0.5299989300833599,932.75,1080)"></path><path  fill="#cccccc" stroke="#cccccc" d="M 20 0 L 0 10 L 20 20 z" id="v-740" transform="matrix(-0.5299989865422613,-0.8479982749181602,0.8479982749181602,-0.5299989865422613,1111.7699582881162,1385.2999921458547)" style="opacity: 1;"></path><path  d="M 933 1080 L 1120 1380" id="v-739" fill="none" style="cursor: auto; pointer-events: visiblepainted;"></path><g ><g id="v-732"  label-idx="0" cursor="move" transform="matrix(1,0,0,1,1026.5,1230)" style="cursor: default; opacity: 1;"><rect joint-selector="rect" id="v-735" fill="#111111" rx="3" ry="3" pointer-events="none" width="45.58306884765625" height="33.357513427734375" transform="matrix(1,0,0,1,-21.1,-16.7)"></rect><text joint-selector="text" id="v-734" font-size="24px" xml:space="preserve" y="0.8em" fill="#cccccc" text-anchor="middle" pointer-events="none" font-family="Open Sans, Tahoma, Arial" font-weight="normal" transform="matrix(1,0,0,1,0,-10.9)"><tspan dy="0" >Usa</tspan></text></g><g id="v-733"  label-idx="1" cursor="move" transform="matrix(1,0,0,1,1016.5,1242)" style="cursor: default; opacity: 1;"><rect joint-selector="rect" id="v-737" fill="#ffffff" rx="3" ry="3"  width="0" height="0" transform="matrix(1,0,0,1,0,0)" display="none"></rect><text joint-selector="text" id="v-736" fill="#000000" font-size="14" text-anchor="middle" pointer-events="none"></text></g></g><g  display="none" style="display: none;"></g><g  id="v-742" display="none"><g  id="v-730"><path  end="source" d="M 26 0 L 0 13 L 26 26 z"></path></g><g  id="v-731"><path  end="target" d="M 26 0 L 0 13 L 26 26 z"></path></g></g><g  id="v-741" display="none"><g  id="v-729" transform="translate(954.1592588038857, 1113.9453349794958) "><g  event="remove"><circle r="11"></circle><path transform="scale(.8) translate(-16, -16)" d="M24.778,21.419 19.276,15.917 24.777,10.415 21.949,7.585 16.447,13.087 10.945,7.585 8.117,10.415 13.618,15.917 8.116,21.419 10.946,24.248 16.447,18.746 21.948,24.248z"></path><title>Remove link.</title></g><g  event="link:options"><circle r="11" transform="translate(25)"></circle><path fill="white" transform="scale(.55) translate(29, -16)" d="M31.229,17.736c0.064-0.571,0.104-1.148,0.104-1.736s-0.04-1.166-0.104-1.737l-4.377-1.557c-0.218-0.716-0.504-1.401-0.851-2.05l1.993-4.192c-0.725-0.91-1.549-1.734-2.458-2.459l-4.193,1.994c-0.647-0.347-1.334-0.632-2.049-0.849l-1.558-4.378C17.165,0.708,16.588,0.667,16,0.667s-1.166,0.041-1.737,0.105L12.707,5.15c-0.716,0.217-1.401,0.502-2.05,0.849L6.464,4.005C5.554,4.73,4.73,5.554,4.005,6.464l1.994,4.192c-0.347,0.648-0.632,1.334-0.849,2.05l-4.378,1.557C0.708,14.834,0.667,15.412,0.667,16s0.041,1.165,0.105,1.736l4.378,1.558c0.217,0.715,0.502,1.401,0.849,2.049l-1.994,4.193c0.725,0.909,1.549,1.733,2.459,2.458l4.192-1.993c0.648,0.347,1.334,0.633,2.05,0.851l1.557,4.377c0.571,0.064,1.148,0.104,1.737,0.104c0.588,0,1.165-0.04,1.736-0.104l1.558-4.377c0.715-0.218,1.399-0.504,2.049-0.851l4.193,1.993c0.909-0.725,1.733-1.549,2.458-2.458l-1.993-4.193c0.347-0.647,0.633-1.334,0.851-2.049L31.229,17.736zM16,20.871c-2.69,0-4.872-2.182-4.872-4.871c0-2.69,2.182-4.872,4.872-4.872c2.689,0,4.871,2.182,4.871,4.872C20.871,18.689,18.689,20.871,16,20.871z"></path><title>Link options.</title></g></g></g></g><!--z-index:43--><g   id="j_59" ><path  stroke="#cccccc" d="M 558 1680 L 745 1980" id="v-752" stroke-width="2" stroke-dasharray="8 8" fill="none" style="opacity: 1;"></path><path  fill="black" stroke="black" d="M 0 0 0 0" transform="matrix(0.5299989300833599,0.8479983102049753,-0.8479983102049753,0.5299989300833599,557.75,1680)"></path><path  fill="#cccccc" stroke="#cccccc" d="M 20 0 L 0 10 L 20 20 z" id="v-754" transform="matrix(-0.5299989865422613,-0.8479982749181602,0.8479982749181602,-0.5299989865422613,736.7700193232724,1985.2999921458547)" style="opacity: 1;"></path><path  d="M 558 1680 L 745 1980" id="v-753" fill="none" style="cursor: auto; pointer-events: visiblepainted;"></path><g ><g id="v-746"  label-idx="0" cursor="move" transform="matrix(1,0,0,1,651.5,1830)" style="cursor: default; opacity: 1;"><rect joint-selector="rect" id="v-749" fill="#111111" rx="3" ry="3" pointer-events="none" width="45.58306884765625" height="33.357513427734375" transform="matrix(1,0,0,1,-21.1,-16.7)"></rect><text joint-selector="text" id="v-748" font-size="24px" xml:space="preserve" y="0.8em" fill="#cccccc" text-anchor="middle" pointer-events="none" font-family="Open Sans, Tahoma, Arial" font-weight="normal" transform="matrix(1,0,0,1,0,-10.9)"><tspan dy="0" >Usa</tspan></text></g><g id="v-747"  label-idx="1" cursor="move" transform="matrix(1,0,0,1,641.5,1842)" style="cursor: default; opacity: 1;"><rect joint-selector="rect" id="v-751" fill="#ffffff" rx="3" ry="3"  width="0" height="0" transform="matrix(1,0,0,1,0,0)" display="none"></rect><text joint-selector="text" id="v-750" fill="#000000" font-size="14" text-anchor="middle" pointer-events="none"></text></g></g><g  display="none" style="display: none;"></g><g  id="v-756" display="none"><g  id="v-744"><path  end="source" d="M 26 0 L 0 13 L 26 26 z"></path></g><g  id="v-745"><path  end="target" d="M 26 0 L 0 13 L 26 26 z"></path></g></g><g  id="v-755" display="none"><g  id="v-743" transform="translate(579.1592588038858, 1713.9453349794958) "><g  event="remove"><circle r="11"></circle><path transform="scale(.8) translate(-16, -16)" d="M24.778,21.419 19.276,15.917 24.777,10.415 21.949,7.585 16.447,13.087 10.945,7.585 8.117,10.415 13.618,15.917 8.116,21.419 10.946,24.248 16.447,18.746 21.948,24.248z"></path><title>Remove link.</title></g><g  event="link:options"><circle r="11" transform="translate(25)"></circle><path fill="white" transform="scale(.55) translate(29, -16)" d="M31.229,17.736c0.064-0.571,0.104-1.148,0.104-1.736s-0.04-1.166-0.104-1.737l-4.377-1.557c-0.218-0.716-0.504-1.401-0.851-2.05l1.993-4.192c-0.725-0.91-1.549-1.734-2.458-2.459l-4.193,1.994c-0.647-0.347-1.334-0.632-2.049-0.849l-1.558-4.378C17.165,0.708,16.588,0.667,16,0.667s-1.166,0.041-1.737,0.105L12.707,5.15c-0.716,0.217-1.401,0.502-2.05,0.849L6.464,4.005C5.554,4.73,4.73,5.554,4.005,6.464l1.994,4.192c-0.347,0.648-0.632,1.334-0.849,2.05l-4.378,1.557C0.708,14.834,0.667,15.412,0.667,16s0.041,1.165,0.105,1.736l4.378,1.558c0.217,0.715,0.502,1.401,0.849,2.049l-1.994,4.193c0.725,0.909,1.549,1.733,2.459,2.458l4.192-1.993c0.648,0.347,1.334,0.633,2.05,0.851l1.557,4.377c0.571,0.064,1.148,0.104,1.737,0.104c0.588,0,1.165-0.04,1.736-0.104l1.558-4.377c0.715-0.218,1.399-0.504,2.049-0.851l4.193,1.993c0.909-0.725,1.733-1.549,2.458-2.458l-1.993-4.193c0.347-0.647,0.633-1.334,0.851-2.049L31.229,17.736zM16,20.871c-2.69,0-4.872-2.182-4.872-4.871c0-2.69,2.182-4.872,4.872-4.872c2.689,0,4.871,2.182,4.871,4.872C20.871,18.689,18.689,20.871,16,20.871z"></path><title>Link options.</title></g></g></g></g><!--z-index:44--><g   id="j_60" ><path  stroke="#cccccc" d="M 1120 1680 L 933 1980" id="v-766" stroke-width="2" stroke-dasharray="8 8" fill="none" style="opacity: 1;"></path><path  fill="black" stroke="black" d="M 0 0 0 0" transform="matrix(-0.5299989865422611,0.8479982749181604,-0.8479982749181604,-0.5299989865422611,1120.25,1680)"></path><path  fill="#cccccc" stroke="#cccccc" d="M 20 0 L 0 10 L 20 20 z" id="v-768" transform="matrix(0.5299987607066414,-0.847998416065398,0.847998416065398,0.5299987607066414,924.2700160252481,1974.700016084838)" style="opacity: 1;"></path><path  d="M 1120 1680 L 933 1980" id="v-767" fill="none" style="cursor: auto; pointer-events: visiblepainted;"></path><g ><g id="v-760"  label-idx="0" cursor="move" transform="matrix(1,0,0,1,1026.5,1830)" style="cursor: default; opacity: 1;"><rect joint-selector="rect" id="v-763" fill="#111111" rx="3" ry="3" pointer-events="none" width="45.58306884765625" height="33.357513427734375" transform="matrix(1,0,0,1,-21.1,-16.7)"></rect><text joint-selector="text" id="v-762" font-size="24px" xml:space="preserve" y="0.8em" fill="#cccccc" text-anchor="middle" pointer-events="none" font-family="Open Sans, Tahoma, Arial" font-weight="normal" transform="matrix(1,0,0,1,0,-10.9)"><tspan dy="0" >Usa</tspan></text></g><g id="v-761"  label-idx="1" cursor="move" transform="matrix(1,0,0,1,1016.5,1842)" style="cursor: default; opacity: 1;"><rect joint-selector="rect" id="v-765" fill="#ffffff" rx="3" ry="3"  width="0" height="0" transform="matrix(1,0,0,1,0,0)" display="none"></rect><text joint-selector="text" id="v-764" fill="#000000" font-size="14" text-anchor="middle" pointer-events="none"></text></g></g><g  display="none" style="display: none;"></g><g  id="v-770" display="none"><g  id="v-758"><path  end="source" d="M 26 0 L 0 13 L 26 26 z"></path></g><g  id="v-759"><path  end="target" d="M 26 0 L 0 13 L 26 26 z"></path></g></g><g  id="v-769" display="none"><g  id="v-757" transform="translate(1098.8407411961143, 1713.9453349794958) "><g  event="remove"><circle r="11"></circle><path transform="scale(.8) translate(-16, -16)" d="M24.778,21.419 19.276,15.917 24.777,10.415 21.949,7.585 16.447,13.087 10.945,7.585 8.117,10.415 13.618,15.917 8.116,21.419 10.946,24.248 16.447,18.746 21.948,24.248z"></path><title>Remove link.</title></g><g  event="link:options"><circle r="11" transform="translate(25)"></circle><path fill="white" transform="scale(.55) translate(29, -16)" d="M31.229,17.736c0.064-0.571,0.104-1.148,0.104-1.736s-0.04-1.166-0.104-1.737l-4.377-1.557c-0.218-0.716-0.504-1.401-0.851-2.05l1.993-4.192c-0.725-0.91-1.549-1.734-2.458-2.459l-4.193,1.994c-0.647-0.347-1.334-0.632-2.049-0.849l-1.558-4.378C17.165,0.708,16.588,0.667,16,0.667s-1.166,0.041-1.737,0.105L12.707,5.15c-0.716,0.217-1.401,0.502-2.05,0.849L6.464,4.005C5.554,4.73,4.73,5.554,4.005,6.464l1.994,4.192c-0.347,0.648-0.632,1.334-0.849,2.05l-4.378,1.557C0.708,14.834,0.667,15.412,0.667,16s0.041,1.165,0.105,1.736l4.378,1.558c0.217,0.715,0.502,1.401,0.849,2.049l-1.994,4.193c0.725,0.909,1.549,1.733,2.459,2.458l4.192-1.993c0.648,0.347,1.334,0.633,2.05,0.851l1.557,4.377c0.571,0.064,1.148,0.104,1.737,0.104c0.588,0,1.165-0.04,1.736-0.104l1.558-4.377c0.715-0.218,1.399-0.504,2.049-0.851l4.193,1.993c0.909-0.725,1.733-1.549,2.458-2.458l-1.993-4.193c0.347-0.647,0.633-1.334,0.851-2.049L31.229,17.736zM16,20.871c-2.69,0-4.872-2.182-4.872-4.871c0-2.69,2.182-4.872,4.872-4.872c2.689,0,4.871,2.182,4.871,4.872C20.871,18.689,18.689,20.871,16,20.871z"></path><title>Link options.</title></g></g></g></g><!--z-index:45--><g   id="j_61" ><path  stroke="#cccccc" d="M 1405 1680 L 1786 1980" id="v-780" stroke-width="2" stroke-dasharray="8 8" fill="none" style="opacity: 1;"></path><path  fill="black" stroke="black" d="M 0 0 0 0" transform="matrix(0.7856739187879319,0.6186408435727582,-0.6186408435727582,0.7856739187879319,1404.5,1680)"></path><path  fill="#cccccc" stroke="#cccccc" d="M 20 0 L 0 10 L 20 20 z" id="v-782" transform="matrix(-0.7856739187879318,-0.6186408435727583,0.6186408435727583,-0.7856739187879318,1779.313641299027,1987.8567462564197)" style="opacity: 1;"></path><path  d="M 1405 1680 L 1786 1980" id="v-781" fill="none" style="cursor: auto; pointer-events: visiblepainted;"></path><g ><g id="v-774"  label-idx="0" cursor="move" transform="matrix(1,0,0,1,1595.5,1830)" style="cursor: default; opacity: 1;"><rect joint-selector="rect" id="v-777" fill="#111111" rx="3" ry="3" pointer-events="none" width="45.58306884765625" height="33.357513427734375" transform="matrix(1,0,0,1,-21.1,-16.7)"></rect><text joint-selector="text" id="v-776" font-size="24px" xml:space="preserve" y="0.8em" fill="#cccccc" text-anchor="middle" pointer-events="none" font-family="Open Sans, Tahoma, Arial" font-weight="normal" transform="matrix(1,0,0,1,0,-10.9)"><tspan dy="0" >Usa</tspan></text></g><g id="v-775"  label-idx="1" cursor="move" transform="matrix(1,0,0,1,1585.5,1842)" style="cursor: default; opacity: 1;"><rect joint-selector="rect" id="v-779" fill="#ffffff" rx="3" ry="3"  width="0" height="0" transform="matrix(1,0,0,1,0,0)" display="none"></rect><text joint-selector="text" id="v-778" fill="#000000" font-size="14" text-anchor="middle" pointer-events="none"></text></g></g><g  display="none" style="display: none;"></g><g  id="v-784" display="none"><g  id="v-772"><path  end="source" d="M 26 0 L 0 13 L 26 26 z"></path></g><g  id="v-773"><path  end="target" d="M 26 0 L 0 13 L 26 26 z"></path></g></g><g  id="v-783" display="none"><g  id="v-771" transform="translate(1436.4269560251132, 1704.7456346654435) "><g  event="remove"><circle r="11"></circle><path transform="scale(.8) translate(-16, -16)" d="M24.778,21.419 19.276,15.917 24.777,10.415 21.949,7.585 16.447,13.087 10.945,7.585 8.117,10.415 13.618,15.917 8.116,21.419 10.946,24.248 16.447,18.746 21.948,24.248z"></path><title>Remove link.</title></g><g  event="link:options"><circle r="11" transform="translate(25)"></circle><path fill="white" transform="scale(.55) translate(29, -16)" d="M31.229,17.736c0.064-0.571,0.104-1.148,0.104-1.736s-0.04-1.166-0.104-1.737l-4.377-1.557c-0.218-0.716-0.504-1.401-0.851-2.05l1.993-4.192c-0.725-0.91-1.549-1.734-2.458-2.459l-4.193,1.994c-0.647-0.347-1.334-0.632-2.049-0.849l-1.558-4.378C17.165,0.708,16.588,0.667,16,0.667s-1.166,0.041-1.737,0.105L12.707,5.15c-0.716,0.217-1.401,0.502-2.05,0.849L6.464,4.005C5.554,4.73,4.73,5.554,4.005,6.464l1.994,4.192c-0.347,0.648-0.632,1.334-0.849,2.05l-4.378,1.557C0.708,14.834,0.667,15.412,0.667,16s0.041,1.165,0.105,1.736l4.378,1.558c0.217,0.715,0.502,1.401,0.849,2.049l-1.994,4.193c0.725,0.909,1.549,1.733,2.459,2.458l4.192-1.993c0.648,0.347,1.334,0.633,2.05,0.851l1.557,4.377c0.571,0.064,1.148,0.104,1.737,0.104c0.588,0,1.165-0.04,1.736-0.104l1.558-4.377c0.715-0.218,1.399-0.504,2.049-0.851l4.193,1.993c0.909-0.725,1.733-1.549,2.458-2.458l-1.993-4.193c0.347-0.647,0.633-1.334,0.851-2.049L31.229,17.736zM16,20.871c-2.69,0-4.872-2.182-4.872-4.871c0-2.69,2.182-4.872,4.872-4.872c2.689,0,4.871,2.182,4.871,4.872C20.871,18.689,18.689,20.871,16,20.871z"></path><title>Link options.</title></g></g></g></g><!--z-index:46--><g   id="j_62" ><path  stroke="#cccccc" d="M 839 480 L 839 780" id="v-794" stroke-width="2" stroke-dasharray="8 8" fill="none" style="opacity: 1;"></path><path  fill="black" stroke="black" d="M 0 0 0 0" transform="matrix(6.123233995736765e-17,0.9999999999999999,-0.9999999999999999,6.123233995736765e-17,839,480)"></path><path  fill="#cccccc" stroke="#cccccc" d="M 20 0 L 0 10 L 20 20 z" id="v-796" transform="matrix(-1.8369701987210294e-16,-0.9999999999999999,0.9999999999999999,-1.8369701987210294e-16,829,780.0000000000005)" style="opacity: 1;"></path><path  d="M 839 480 L 839 780" id="v-795" fill="none" style="cursor: auto; pointer-events: visiblepainted;"></path><g ><g id="v-788"  label-idx="0" cursor="move" transform="matrix(1,0,0,1,839,630)" style="cursor: default; opacity: 1;"><rect joint-selector="rect" id="v-791" fill="#111111" rx="3" ry="3" pointer-events="none" width="45.58306884765625" height="33.357513427734375" transform="matrix(1,0,0,1,-21.1,-16.7)"></rect><text joint-selector="text" id="v-790" font-size="24px" xml:space="preserve" y="0.8em" fill="#cccccc" text-anchor="middle" pointer-events="none" font-family="Open Sans, Tahoma, Arial" font-weight="normal" transform="matrix(1,0,0,1,0,-10.9)"><tspan dy="0" >Usa</tspan></text></g><g id="v-789"  label-idx="1" cursor="move" transform="matrix(1,0,0,1,829,642)" style="cursor: default; opacity: 1;"><rect joint-selector="rect" id="v-793" fill="#ffffff" rx="3" ry="3"  width="0" height="0" transform="matrix(1,0,0,1,0,0)" display="none"></rect><text joint-selector="text" id="v-792" fill="#000000" font-size="14" text-anchor="middle" pointer-events="none"></text></g></g><g  display="none" style="display: none;"></g><g  id="v-798" display="none"><g  id="v-786"><path  end="source" d="M 26 0 L 0 13 L 26 26 z"></path></g><g  id="v-787"><path  end="target" d="M 26 0 L 0 13 L 26 26 z"></path></g></g><g  id="v-797" display="none"><g  id="v-785" transform="translate(839, 520) "><g  event="remove"><circle r="11"></circle><path transform="scale(.8) translate(-16, -16)" d="M24.778,21.419 19.276,15.917 24.777,10.415 21.949,7.585 16.447,13.087 10.945,7.585 8.117,10.415 13.618,15.917 8.116,21.419 10.946,24.248 16.447,18.746 21.948,24.248z"></path><title>Remove link.</title></g><g  event="link:options"><circle r="11" transform="translate(25)"></circle><path fill="white" transform="scale(.55) translate(29, -16)" d="M31.229,17.736c0.064-0.571,0.104-1.148,0.104-1.736s-0.04-1.166-0.104-1.737l-4.377-1.557c-0.218-0.716-0.504-1.401-0.851-2.05l1.993-4.192c-0.725-0.91-1.549-1.734-2.458-2.459l-4.193,1.994c-0.647-0.347-1.334-0.632-2.049-0.849l-1.558-4.378C17.165,0.708,16.588,0.667,16,0.667s-1.166,0.041-1.737,0.105L12.707,5.15c-0.716,0.217-1.401,0.502-2.05,0.849L6.464,4.005C5.554,4.73,4.73,5.554,4.005,6.464l1.994,4.192c-0.347,0.648-0.632,1.334-0.849,2.05l-4.378,1.557C0.708,14.834,0.667,15.412,0.667,16s0.041,1.165,0.105,1.736l4.378,1.558c0.217,0.715,0.502,1.401,0.849,2.049l-1.994,4.193c0.725,0.909,1.549,1.733,2.459,2.458l4.192-1.993c0.648,0.347,1.334,0.633,2.05,0.851l1.557,4.377c0.571,0.064,1.148,0.104,1.737,0.104c0.588,0,1.165-0.04,1.736-0.104l1.558-4.377c0.715-0.218,1.399-0.504,2.049-0.851l4.193,1.993c0.909-0.725,1.733-1.549,2.458-2.458l-1.993-4.193c0.347-0.647,0.633-1.334,0.851-2.049L31.229,17.736zM16,20.871c-2.69,0-4.872-2.182-4.872-4.871c0-2.69,2.182-4.872,4.872-4.872c2.689,0,4.871,2.182,4.871,4.872C20.871,18.689,18.689,20.871,16,20.871z"></path><title>Link options.</title></g></g></g></g><!--z-index:47--><g   id="j_63" ><path  stroke="#cccccc" d="M 839 2280 L 839 2580" id="v-808" stroke-width="2" stroke-dasharray="8 8" fill="none" style="opacity: 1;"></path><path  fill="black" stroke="black" d="M 0 0 0 0" transform="matrix(6.123233995736765e-17,0.9999999999999999,-0.9999999999999999,6.123233995736765e-17,839,2280)"></path><path  fill="#cccccc" stroke="#cccccc" d="M 20 0 L 0 10 L 20 20 z" id="v-810" transform="matrix(-1.8369701987210294e-16,-0.9999999999999999,0.9999999999999999,-1.8369701987210294e-16,829,2580.0000000000005)" style="opacity: 1;"></path><path  d="M 839 2280 L 839 2580" id="v-809" fill="none" style="cursor: auto; pointer-events: visiblepainted;"></path><g ><g id="v-802"  label-idx="0" cursor="move" transform="matrix(1,0,0,1,839,2430)" style="cursor: default; opacity: 1;"><rect joint-selector="rect" id="v-805" fill="#111111" rx="3" ry="3" pointer-events="none" width="45.58306884765625" height="33.357513427734375" transform="matrix(1,0,0,1,-21.1,-16.7)"></rect><text joint-selector="text" id="v-804" font-size="24px" xml:space="preserve" y="0.8em" fill="#cccccc" text-anchor="middle" pointer-events="none" font-family="Open Sans, Tahoma, Arial" font-weight="normal" transform="matrix(1,0,0,1,0,-10.9)"><tspan dy="0" >Usa</tspan></text></g><g id="v-803"  label-idx="1" cursor="move" transform="matrix(1,0,0,1,829,2442)" style="cursor: default; opacity: 1;"><rect joint-selector="rect" id="v-807" fill="#ffffff" rx="3" ry="3"  width="0" height="0" transform="matrix(1,0,0,1,0,0)" display="none"></rect><text joint-selector="text" id="v-806" fill="#000000" font-size="14" text-anchor="middle" pointer-events="none"></text></g></g><g  display="none" style="display: none;"></g><g  id="v-812" display="none"><g  id="v-800"><path  end="source" d="M 26 0 L 0 13 L 26 26 z"></path></g><g  id="v-801"><path  end="target" d="M 26 0 L 0 13 L 26 26 z"></path></g></g><g  id="v-811" display="none"><g  id="v-799" transform="translate(839, 2320) "><g  event="remove"><circle r="11"></circle><path transform="scale(.8) translate(-16, -16)" d="M24.778,21.419 19.276,15.917 24.777,10.415 21.949,7.585 16.447,13.087 10.945,7.585 8.117,10.415 13.618,15.917 8.116,21.419 10.946,24.248 16.447,18.746 21.948,24.248z"></path><title>Remove link.</title></g><g  event="link:options"><circle r="11" transform="translate(25)"></circle><path fill="white" transform="scale(.55) translate(29, -16)" d="M31.229,17.736c0.064-0.571,0.104-1.148,0.104-1.736s-0.04-1.166-0.104-1.737l-4.377-1.557c-0.218-0.716-0.504-1.401-0.851-2.05l1.993-4.192c-0.725-0.91-1.549-1.734-2.458-2.459l-4.193,1.994c-0.647-0.347-1.334-0.632-2.049-0.849l-1.558-4.378C17.165,0.708,16.588,0.667,16,0.667s-1.166,0.041-1.737,0.105L12.707,5.15c-0.716,0.217-1.401,0.502-2.05,0.849L6.464,4.005C5.554,4.73,4.73,5.554,4.005,6.464l1.994,4.192c-0.347,0.648-0.632,1.334-0.849,2.05l-4.378,1.557C0.708,14.834,0.667,15.412,0.667,16s0.041,1.165,0.105,1.736l4.378,1.558c0.217,0.715,0.502,1.401,0.849,2.049l-1.994,4.193c0.725,0.909,1.549,1.733,2.459,2.458l4.192-1.993c0.648,0.347,1.334,0.633,2.05,0.851l1.557,4.377c0.571,0.064,1.148,0.104,1.737,0.104c0.588,0,1.165-0.04,1.736-0.104l1.558-4.377c0.715-0.218,1.399-0.504,2.049-0.851l4.193,1.993c0.909-0.725,1.733-1.549,2.458-2.458l-1.993-4.193c0.347-0.647,0.633-1.334,0.851-2.049L31.229,17.736zM16,20.871c-2.69,0-4.872-2.182-4.872-4.871c0-2.69,2.182-4.872,4.872-4.872c2.689,0,4.871,2.182,4.871,4.872C20.871,18.689,18.689,20.871,16,20.871z"></path><title>Link options.</title></g></g></g></g><!--z-index:48--><!--z-index:49--><!--z-index:50--><!--z-index:51--><!--z-index:52--><!--z-index:53--><!--z-index:54--><!--z-index:55--><!--z-index:56--><!--z-index:57--><!--z-index:58--><!--z-index:59--><!--z-index:60--><!--z-index:61--><!--z-index:62--><!--z-index:63--><!--z-index:64--><!--z-index:65--><!--z-index:66--></g><g ></g><g ></g><g ></g></g></svg>