<svg xmlns="http://www.w3.org/2000/svg" xmlns:xlink="http://www.w3.org/1999/xlink" version="1.1" viewBox="0 0 2350 1900" style="background: #111111"><defs joint-selector="defs"></defs><g joint-selector="layers"  transform="matrix(1,0,0,1,0,0)"><g ></g><g ><!--z-index:1--><!--z-index:2--><!--z-index:3--><!--z-index:4--><!--z-index:5--><!--z-index:6--><!--z-index:7--><!--z-index:8--><!--z-index:9--><!--z-index:10--><!--z-index:11--><!--z-index:12--><!--z-index:13--><g   id="j_260"  transform="translate(20,1856)"><g id="v-3095"><text  id="v-3096" font-size="24px" xml:space="preserve" y="0.8em" font-weight="normal" text-anchor="start" fill="#cccccc" pointer-events="none" display="block" font-family="Open Sans, Tahoma, Arial"><tspan dy="0"  display="block">miércoles, 22 de abril de 2026, 6:59 p. m. hora estándar de Perú</tspan></text></g></g><!--z-index:14--><g   id="j_259"  transform="translate(20,1810)"><g id="v-3093"><text  id="v-3094" font-size="36px" xml:space="preserve" y="0.8em" font-weight="normal" text-anchor="start" fill="#cccccc" pointer-events="none" display="block" font-family="Open Sans, Tahoma, Arial"><tspan dy="0"  display="block">System Context View: SMARTGAS PLATFORM</tspan></text></g></g><!--z-index:15--><g   id="j_261"  transform="translate(199,159)" style=""><g  id="v-3100" style="opacity: 1;"><rect  x="0" y="160" width="400" height="240" rx="70" id="v-3102" stroke-width="2" pointer-events="visiblePainted" fill="#08427b" stroke="#073b6f" stroke-dasharray=""></rect><circle  cx="200" cy="88.88888888888889" r="88.88888888888889" id="v-3101" stroke-width="2" pointer-events="visiblePainted" fill="#08427b" stroke="#073b6f" stroke-dasharray=""></circle><line  x1="80" y1="266.6666666666667" x2="80" y2="400" id="v-3108" stroke="#073b6f" stroke-width="1" stroke-dasharray=""></line><line  x1="320" y1="266.6666666666667" x2="320" y2="400" id="v-3109" stroke="#073b6f" stroke-width="1" stroke-dasharray=""></line><text  id="v-3103" font-size="33.599999999999994px" xml:space="preserve" y="211.14000000000001" font-weight="bold" text-anchor="middle" pointer-events="visible" font-family="Open Sans, Tahoma, Arial" fill="#ffffff" dominant-baseline="hanging" transform="matrix(1,0,0,1,200,0)"><tspan dy="0" >FAMILIA /</tspan><tspan dy="1.2em" x="0" >PROPIETARIO</tspan></text><text  id="v-3104" font-size="16.799999999999997px" xml:space="preserve" y="293.06" text-anchor="middle" font-family="Open Sans, Tahoma, Arial" fill="#ffffff" dominant-baseline="hanging" transform="matrix(1,0,0,1,200,0)" style="display: block;"><tspan dy="0" >[Person]</tspan></text><text  id="v-3105" font-size="24px" xml:space="preserve" y="324.86" text-anchor="middle" font-family="Open Sans, Tahoma, Arial" fill="#ffffff" dominant-baseline="hanging" transform="matrix(1,0,0,1,200,0)" style="display: block;"><tspan dy="0" >Usuario doméstico</tspan></text><g  id="v-3106" font-weight="normal" text-anchor="middle" color="#ffffff" transform="matrix(1,0,0,1,197.5,368)" display="none"><g ></g><g ></g><g ></g><g ></g></g><image  id="v-3107"></image></g></g><!--z-index:16--><g   id="j_262"  transform="translate(949,159)" style=""><g  id="v-3116" style="opacity: 1;"><rect  x="0" y="160" width="400" height="240" rx="70" id="v-3118" stroke-width="2" pointer-events="visiblePainted" fill="#08427b" stroke="#073b6f" stroke-dasharray=""></rect><circle  cx="200" cy="88.88888888888889" r="88.88888888888889" id="v-3117" stroke-width="2" pointer-events="visiblePainted" fill="#08427b" stroke="#073b6f" stroke-dasharray=""></circle><line  x1="80" y1="266.6666666666667" x2="80" y2="400" id="v-3124" stroke="#073b6f" stroke-width="1" stroke-dasharray=""></line><line  x1="320" y1="266.6666666666667" x2="320" y2="400" id="v-3125" stroke="#073b6f" stroke-width="1" stroke-dasharray=""></line><text  id="v-3119" font-size="33.599999999999994px" xml:space="preserve" y="196.74" font-weight="bold" text-anchor="middle" pointer-events="visible" font-family="Open Sans, Tahoma, Arial" fill="#ffffff" dominant-baseline="hanging" transform="matrix(1,0,0,1,200,0)"><tspan dy="0" >ADMINISTRADOR /</tspan><tspan dy="1.2em" x="0" >CHEF</tspan></text><text  id="v-3120" font-size="16.799999999999997px" xml:space="preserve" y="278.65999999999997" text-anchor="middle" font-family="Open Sans, Tahoma, Arial" fill="#ffffff" dominant-baseline="hanging" transform="matrix(1,0,0,1,200,0)" style="display: block;"><tspan dy="0" >[Person]</tspan></text><text  id="v-3121" font-size="24px" xml:space="preserve" y="310.46" text-anchor="middle" font-family="Open Sans, Tahoma, Arial" fill="#ffffff" dominant-baseline="hanging" transform="matrix(1,0,0,1,200,0)" style="display: block;"><tspan dy="0" >Usuario comercial</tspan><tspan dy="1.2em" x="0" >(Restaurantes)</tspan></text><g  id="v-3122" font-weight="normal" text-anchor="middle" color="#ffffff" transform="matrix(1,0,0,1,197.5,368)" display="none"><g ></g><g ></g><g ></g><g ></g></g><image  id="v-3123"></image></g></g><!--z-index:17--><g   id="j_263"  transform="translate(949,759)" style=""><g  id="v-3132" style="opacity: 1;"><rect  id="v-3133" rx="20" ry="20" stroke-width="2" pointer-events="visiblePainted" fill="#1168bd" stroke="#0f5eaa" stroke-dasharray="" width="450" height="300"></rect><text  id="v-3134" font-size="33.599999999999994px" xml:space="preserve" y="86.9" font-weight="bold" text-anchor="middle" pointer-events="visible" font-family="Open Sans, Tahoma, Arial" fill="#ffffff" dominant-baseline="hanging" transform="matrix(1,0,0,1,225,0)"><tspan dy="0" >SMARTGAS PLATFORM</tspan></text><text  id="v-3135" font-size="16.799999999999997px" xml:space="preserve" y="128.5" text-anchor="middle" font-family="Open Sans, Tahoma, Arial" fill="#ffffff" dominant-baseline="hanging" transform="matrix(1,0,0,1,225,0)" style="display: block;"><tspan dy="0" >[Software System]</tspan></text><text  id="v-3136" font-size="24px" xml:space="preserve" y="160.3" text-anchor="middle" font-family="Open Sans, Tahoma, Arial" fill="#ffffff" dominant-baseline="hanging" transform="matrix(1,0,0,1,225,0)" style="display: block;"><tspan dy="0" >Plataforma SaaS de prevención de</tspan><tspan dy="1.2em" x="0" >fugas de gas e incendios</tspan></text><g  id="v-3137" color="#ffffff" transform="matrix(1,0,0,1,210,268)" display="none"><g  transform="translate(5 0)"><svg xmlns="http://www.w3.org/2000/svg" width="20" height="20" fill="currentColor" viewBox="0 0 16 16"><path fill-rule="evenodd" d="M6.5 12a5.5 5.5 0 1 0 0-11 5.5 5.5 0 0 0 0 11zM13 6.5a6.5 6.5 0 1 1-13 0 6.5 6.5 0 0 1 13 0z"></path><path d="M10.344 11.742c.03.04.062.078.098.115l3.85 3.85a1 1 0 0 0 1.415-1.414l-3.85-3.85a1.007 1.007 0 0 0-.115-.1 6.538 6.538 0 0 1-1.398 1.4z"></path><path fill-rule="evenodd" d="M6.5 3a.5.5 0 0 1 .5.5V6h2.5a.5.5 0 0 1 0 1H7v2.5a.5.5 0 0 1-1 0V7H3.5a.5.5 0 0 1 0-1H6V3.5a.5.5 0 0 1 .5-.5z"></path></svg></g><g ></g><g ></g><g ></g></g><image  id="v-3138"></image></g></g><!--z-index:18--><g   id="j_264"  transform="translate(1699,159)" style=""><g  id="v-3142" style="opacity: 1;"><rect  id="v-3143" rx="20" ry="20" stroke-width="2" pointer-events="visiblePainted" fill="#f2e85a" stroke="#dad151" stroke-dasharray="" width="450" height="300"></rect><text  id="v-3144" font-size="33.599999999999994px" xml:space="preserve" y="86.9" font-weight="bold" text-anchor="middle" pointer-events="visible" font-family="Open Sans, Tahoma, Arial" fill="#333333" dominant-baseline="hanging" transform="matrix(1,0,0,1,225,0)"><tspan dy="0" >SENSORES IOT</tspan></text><text  id="v-3145" font-size="16.799999999999997px" xml:space="preserve" y="128.5" text-anchor="middle" font-family="Open Sans, Tahoma, Arial" fill="#333333" dominant-baseline="hanging" transform="matrix(1,0,0,1,225,0)" style="display: block;"><tspan dy="0" >[Software System]</tspan></text><text  id="v-3146" font-size="24px" xml:space="preserve" y="160.3" text-anchor="middle" font-family="Open Sans, Tahoma, Arial" fill="#333333" dominant-baseline="hanging" transform="matrix(1,0,0,1,225,0)" style="display: block;"><tspan dy="0" >Dispositivos físicos de detección</tspan><tspan dy="1.2em" x="0" >de gas y temperatura</tspan></text><g  id="v-3147" color="#333333" transform="matrix(1,0,0,1,222.5,268)" display="none"><g ></g><g ></g><g ></g><g ></g></g><image  id="v-3148"></image></g></g><!--z-index:19--><g   id="j_265"  transform="translate(574,1359)" style=""><g  id="v-3155" style="opacity: 1;"><rect  id="v-3156" rx="20" ry="20" stroke-width="2" pointer-events="visiblePainted" fill="#f2e85a" stroke="#dad151" stroke-dasharray="" width="450" height="300"></rect><text  id="v-3157" font-size="33.599999999999994px" xml:space="preserve" y="66.74000000000001" font-weight="bold" text-anchor="middle" pointer-events="visible" font-family="Open Sans, Tahoma, Arial" fill="#333333" dominant-baseline="hanging" transform="matrix(1,0,0,1,225,0)"><tspan dy="0" >SERVICIO DE</tspan><tspan dy="1.2em" x="0" >NOTIFICACIONES</tspan></text><text  id="v-3158" font-size="16.799999999999997px" xml:space="preserve" y="148.66" text-anchor="middle" font-family="Open Sans, Tahoma, Arial" fill="#333333" dominant-baseline="hanging" transform="matrix(1,0,0,1,225,0)" style="display: block;"><tspan dy="0" >[Software System]</tspan></text><text  id="v-3159" font-size="24px" xml:space="preserve" y="180.45999999999998" text-anchor="middle" font-family="Open Sans, Tahoma, Arial" fill="#333333" dominant-baseline="hanging" transform="matrix(1,0,0,1,225,0)" style="display: block;"><tspan dy="0" >Servicio externo de mensajería</tspan><tspan dy="1.2em" x="0" >(SMS/Push)</tspan></text><g  id="v-3160" color="#333333" transform="matrix(1,0,0,1,222.5,268)" display="none"><g ></g><g ></g><g ></g><g ></g></g><image  id="v-3161"></image></g></g><!--z-index:20--><g   id="j_266"  transform="translate(1324,1359)" style=""><g  id="v-3168" style="opacity: 1;"><rect  id="v-3169" rx="20" ry="20" stroke-width="2" pointer-events="visiblePainted" fill="#f2e85a" stroke="#dad151" stroke-dasharray="" width="450" height="300"></rect><text  id="v-3170" font-size="33.599999999999994px" xml:space="preserve" y="86.9" font-weight="bold" text-anchor="middle" pointer-events="visible" font-family="Open Sans, Tahoma, Arial" fill="#333333" dominant-baseline="hanging" transform="matrix(1,0,0,1,225,0)"><tspan dy="0" >PASARELA DE PAGOS</tspan></text><text  id="v-3171" font-size="16.799999999999997px" xml:space="preserve" y="128.5" text-anchor="middle" font-family="Open Sans, Tahoma, Arial" fill="#333333" dominant-baseline="hanging" transform="matrix(1,0,0,1,225,0)" style="display: block;"><tspan dy="0" >[Software System]</tspan></text><text  id="v-3172" font-size="24px" xml:space="preserve" y="160.3" text-anchor="middle" font-family="Open Sans, Tahoma, Arial" fill="#333333" dominant-baseline="hanging" transform="matrix(1,0,0,1,225,0)" style="display: block;"><tspan dy="0" >Procesador de pagos SaaS (ej.</tspan><tspan dy="1.2em" x="0" >Stripe)</tspan></text><g  id="v-3173" color="#333333" transform="matrix(1,0,0,1,222.5,268)" display="none"><g ></g><g ></g><g ></g><g ></g></g><image  id="v-3174"></image></g></g><!--z-index:21--><g   id="j_267" ><path  stroke="#cccccc" d="M 599 501 L 963 759" id="v-3187" stroke-width="2" stroke-dasharray="8 8" fill="none" style="opacity: 1;"></path><path  fill="black" stroke="black" d="M 0 0 0 0" transform="matrix(0.8155146665371525,0.5787364068924616,-0.5787364068924616,0.8155146665371525,599,500.94000244140625)"></path><path  fill="#cccccc" stroke="#cccccc" d="M 20 0 L 0 10 L 20 20 z" id="v-3189" transform="matrix(-0.8155145894737313,-0.5787365154848029,0.5787365154848029,-0.8155145894737313,956.8526440211392,767.1551575339603)" style="opacity: 1;"></path><path  d="M 599 501 L 963 759" id="v-3188" fill="none" style="cursor: auto; pointer-events: visiblepainted;"></path><g ><g id="v-3181"  label-idx="0" cursor="move" transform="matrix(1,0,0,1,781,630)" style="cursor: default; opacity: 1;"><rect joint-selector="rect" id="v-3184" fill="#111111" rx="3" ry="3" pointer-events="none" width="161.7513885498047" height="91.41997909545898" transform="matrix(1,0,0,1,-80.4,-45.7)"></rect><text joint-selector="text" id="v-3183" font-size="24px" xml:space="preserve" y="0.8em" fill="#cccccc" text-anchor="middle" pointer-events="none" font-family="Open Sans, Tahoma, Arial" font-weight="normal" transform="matrix(1,0,0,1,0,-38.9)"><tspan dy="0" >Supervisa su</tspan><tspan dy="1.2em" x="0" >hogar e</tspan><tspan dy="1.2em" x="0" >interactúa con</tspan></text></g><g id="v-3182"  label-idx="1" cursor="move" transform="matrix(1,0,0,1,771,670.7999877929688)" style="cursor: default; opacity: 1;"><rect joint-selector="rect" id="v-3186" fill="#ffffff" rx="3" ry="3"  width="0" height="0" transform="matrix(1,0,0,1,0,0)" display="none"></rect><text joint-selector="text" id="v-3185" fill="#000000" font-size="14" text-anchor="middle" pointer-events="none"></text></g></g><g  display="none" style="display: none;"></g><g  id="v-3191" display="none"><g  id="v-3179"><path  end="source" d="M 26 0 L 0 13 L 26 26 z"></path></g><g  id="v-3180"><path  end="target" d="M 26 0 L 0 13 L 26 26 z"></path></g></g><g  id="v-3190" display="none"><g  id="v-3178" transform="translate(631.6339298102735, 524.1306425578312) "><g  event="remove"><circle r="11"></circle><path transform="scale(.8) translate(-16, -16)" d="M24.778,21.419 19.276,15.917 24.777,10.415 21.949,7.585 16.447,13.087 10.945,7.585 8.117,10.415 13.618,15.917 8.116,21.419 10.946,24.248 16.447,18.746 21.948,24.248z"></path><title>Remove link.</title></g><g  event="link:options"><circle r="11" transform="translate(25)"></circle><path fill="white" transform="scale(.55) translate(29, -16)" d="M31.229,17.736c0.064-0.571,0.104-1.148,0.104-1.736s-0.04-1.166-0.104-1.737l-4.377-1.557c-0.218-0.716-0.504-1.401-0.851-2.05l1.993-4.192c-0.725-0.91-1.549-1.734-2.458-2.459l-4.193,1.994c-0.647-0.347-1.334-0.632-2.049-0.849l-1.558-4.378C17.165,0.708,16.588,0.667,16,0.667s-1.166,0.041-1.737,0.105L12.707,5.15c-0.716,0.217-1.401,0.502-2.05,0.849L6.464,4.005C5.554,4.73,4.73,5.554,4.005,6.464l1.994,4.192c-0.347,0.648-0.632,1.334-0.849,2.05l-4.378,1.557C0.708,14.834,0.667,15.412,0.667,16s0.041,1.165,0.105,1.736l4.378,1.558c0.217,0.715,0.502,1.401,0.849,2.049l-1.994,4.193c0.725,0.909,1.549,1.733,2.459,2.458l4.192-1.993c0.648,0.347,1.334,0.633,2.05,0.851l1.557,4.377c0.571,0.064,1.148,0.104,1.737,0.104c0.588,0,1.165-0.04,1.736-0.104l1.558-4.377c0.715-0.218,1.399-0.504,2.049-0.851l4.193,1.993c0.909-0.725,1.733-1.549,2.458-2.458l-1.993-4.193c0.347-0.647,0.633-1.334,0.851-2.049L31.229,17.736zM16,20.871c-2.69,0-4.872-2.182-4.872-4.871c0-2.69,2.182-4.872,4.872-4.872c2.689,0,4.871,2.182,4.871,4.872C20.871,18.689,18.689,20.871,16,20.871z"></path><title>Link options.</title></g></g></g></g><!--z-index:22--><g   id="j_268" ><path  stroke="#cccccc" d="M 1158 559 L 1167 759" id="v-3204" stroke-width="2" stroke-dasharray="8 8" fill="none" style="opacity: 1;"></path><path  fill="black" stroke="black" d="M 0 0 0 0" transform="matrix(0.04540313382364607,0.9989687459770661,-0.9989687459770661,0.04540313382364607,1158.0899658203125,559)"></path><path  fill="#cccccc" stroke="#cccccc" d="M 20 0 L 0 10 L 20 20 z" id="v-3206" transform="matrix(-0.04540300080291055,-0.9989687520228503,0.9989687520228503,-0.04540300080291055,1157.1902946362381,759.4540324696638)" style="opacity: 1;"></path><path  d="M 1158 559 L 1167 759" id="v-3205" fill="none" style="cursor: auto; pointer-events: visiblepainted;"></path><g ><g id="v-3198"  label-idx="0" cursor="move" transform="matrix(1,0,0,1,1162.5,659)" style="cursor: default; opacity: 1;"><rect joint-selector="rect" id="v-3201" fill="#111111" rx="3" ry="3" pointer-events="none" width="161.7513885498047" height="120.21998977661133" transform="matrix(1,0,0,1,-80.4,-60.1)"></rect><text joint-selector="text" id="v-3200" font-size="24px" xml:space="preserve" y="0.8em" fill="#cccccc" text-anchor="middle" pointer-events="none" font-family="Open Sans, Tahoma, Arial" font-weight="normal" transform="matrix(1,0,0,1,0,-53.3)"><tspan dy="0" >Administra</tspan><tspan dy="1.2em" x="0" >locales</tspan><tspan dy="1.2em" x="0" >comerciales e</tspan><tspan dy="1.2em" x="0" >interactúa con</tspan></text></g><g id="v-3199"  label-idx="1" cursor="move" transform="matrix(1,0,0,1,1152.5,714.2000122070312)" style="cursor: default; opacity: 1;"><rect joint-selector="rect" id="v-3203" fill="#ffffff" rx="3" ry="3"  width="0" height="0" transform="matrix(1,0,0,1,0,0)" display="none"></rect><text joint-selector="text" id="v-3202" fill="#000000" font-size="14" text-anchor="middle" pointer-events="none"></text></g></g><g  display="none" style="display: none;"></g><g  id="v-3208" display="none"><g  id="v-3196"><path  end="source" d="M 26 0 L 0 13 L 26 26 z"></path></g><g  id="v-3197"><path  end="target" d="M 26 0 L 0 13 L 26 26 z"></path></g></g><g  id="v-3207" display="none"><g  id="v-3195" transform="translate(1159.7981802632594, 598.9595614057615) "><g  event="remove"><circle r="11"></circle><path transform="scale(.8) translate(-16, -16)" d="M24.778,21.419 19.276,15.917 24.777,10.415 21.949,7.585 16.447,13.087 10.945,7.585 8.117,10.415 13.618,15.917 8.116,21.419 10.946,24.248 16.447,18.746 21.948,24.248z"></path><title>Remove link.</title></g><g  event="link:options"><circle r="11" transform="translate(25)"></circle><path fill="white" transform="scale(.55) translate(29, -16)" d="M31.229,17.736c0.064-0.571,0.104-1.148,0.104-1.736s-0.04-1.166-0.104-1.737l-4.377-1.557c-0.218-0.716-0.504-1.401-0.851-2.05l1.993-4.192c-0.725-0.91-1.549-1.734-2.458-2.459l-4.193,1.994c-0.647-0.347-1.334-0.632-2.049-0.849l-1.558-4.378C17.165,0.708,16.588,0.667,16,0.667s-1.166,0.041-1.737,0.105L12.707,5.15c-0.716,0.217-1.401,0.502-2.05,0.849L6.464,4.005C5.554,4.73,4.73,5.554,4.005,6.464l1.994,4.192c-0.347,0.648-0.632,1.334-0.849,2.05l-4.378,1.557C0.708,14.834,0.667,15.412,0.667,16s0.041,1.165,0.105,1.736l4.378,1.558c0.217,0.715,0.502,1.401,0.849,2.049l-1.994,4.193c0.725,0.909,1.549,1.733,2.459,2.458l4.192-1.993c0.648,0.347,1.334,0.633,2.05,0.851l1.557,4.377c0.571,0.064,1.148,0.104,1.737,0.104c0.588,0,1.165-0.04,1.736-0.104l1.558-4.377c0.715-0.218,1.399-0.504,2.049-0.851l4.193,1.993c0.909-0.725,1.733-1.549,2.458-2.458l-1.993-4.193c0.347-0.647,0.633-1.334,0.851-2.049L31.229,17.736zM16,20.871c-2.69,0-4.872-2.182-4.872-4.871c0-2.69,2.182-4.872,4.872-4.872c2.689,0,4.871,2.182,4.871,4.872C20.871,18.689,18.689,20.871,16,20.871z"></path><title>Link options.</title></g></g></g></g><!--z-index:23--><g   id="j_269" ><path  stroke="#cccccc" d="M 1737 459 L 1362 759" id="v-3221" stroke-width="2" stroke-dasharray="8 8" fill="none" style="opacity: 1;"></path><path  fill="black" stroke="black" d="M 0 0 0 0" transform="matrix(-0.7808688416748546,0.6246950072646418,-0.6246950072646418,-0.7808688416748546,1736.5,459)"></path><path  fill="#cccccc" stroke="#cccccc" d="M 20 0 L 0 10 L 20 20 z" id="v-3223" transform="matrix(0.7808686753084834,-0.624695215222571,0.624695215222571,0.7808686753084834,1355.253076915002,751.1913171569533)" style="opacity: 1;"></path><path  d="M 1737 459 L 1362 759" id="v-3222" fill="none" style="cursor: auto; pointer-events: visiblepainted;"></path><g ><g id="v-3215"  label-idx="0" cursor="move" transform="matrix(1,0,0,1,1549.5,609)" style="cursor: default; opacity: 1;"><rect joint-selector="rect" id="v-3218" fill="#111111" rx="3" ry="3" pointer-events="none" width="162.43350219726562" height="62.6199893951416" transform="matrix(1,0,0,1,-81.2,-31.3)"></rect><text joint-selector="text" id="v-3217" font-size="24px" xml:space="preserve" y="0.8em" fill="#cccccc" text-anchor="middle" pointer-events="none" font-family="Open Sans, Tahoma, Arial" font-weight="normal" transform="matrix(1,0,0,1,0,-24.5)"><tspan dy="0" >Envía datos de</tspan><tspan dy="1.2em" x="0" >telemetría a</tspan></text></g><g id="v-3216"  label-idx="1" cursor="move" transform="matrix(1,0,0,1,1539.5,635.4000244140625)" style="cursor: default; opacity: 1;"><rect joint-selector="rect" id="v-3220" fill="#ffffff" rx="3" ry="3"  width="0" height="0" transform="matrix(1,0,0,1,0,0)" display="none"></rect><text joint-selector="text" id="v-3219" fill="#000000" font-size="14" text-anchor="middle" pointer-events="none"></text></g></g><g  display="none" style="display: none;"></g><g  id="v-3225" display="none"><g  id="v-3213"><path  end="source" d="M 26 0 L 0 13 L 26 26 z"></path></g><g  id="v-3214"><path  end="target" d="M 26 0 L 0 13 L 26 26 z"></path></g></g><g  id="v-3224" display="none"><g  id="v-3212" transform="translate(1705.7652476222788, 483.987801902177) "><g  event="remove"><circle r="11"></circle><path transform="scale(.8) translate(-16, -16)" d="M24.778,21.419 19.276,15.917 24.777,10.415 21.949,7.585 16.447,13.087 10.945,7.585 8.117,10.415 13.618,15.917 8.116,21.419 10.946,24.248 16.447,18.746 21.948,24.248z"></path><title>Remove link.</title></g><g  event="link:options"><circle r="11" transform="translate(25)"></circle><path fill="white" transform="scale(.55) translate(29, -16)" d="M31.229,17.736c0.064-0.571,0.104-1.148,0.104-1.736s-0.04-1.166-0.104-1.737l-4.377-1.557c-0.218-0.716-0.504-1.401-0.851-2.05l1.993-4.192c-0.725-0.91-1.549-1.734-2.458-2.459l-4.193,1.994c-0.647-0.347-1.334-0.632-2.049-0.849l-1.558-4.378C17.165,0.708,16.588,0.667,16,0.667s-1.166,0.041-1.737,0.105L12.707,5.15c-0.716,0.217-1.401,0.502-2.05,0.849L6.464,4.005C5.554,4.73,4.73,5.554,4.005,6.464l1.994,4.192c-0.347,0.648-0.632,1.334-0.849,2.05l-4.378,1.557C0.708,14.834,0.667,15.412,0.667,16s0.041,1.165,0.105,1.736l4.378,1.558c0.217,0.715,0.502,1.401,0.849,2.049l-1.994,4.193c0.725,0.909,1.549,1.733,2.459,2.458l4.192-1.993c0.648,0.347,1.334,0.633,2.05,0.851l1.557,4.377c0.571,0.064,1.148,0.104,1.737,0.104c0.588,0,1.165-0.04,1.736-0.104l1.558-4.377c0.715-0.218,1.399-0.504,2.049-0.851l4.193,1.993c0.909-0.725,1.733-1.549,2.458-2.458l-1.993-4.193c0.347-0.647,0.633-1.334,0.851-2.049L31.229,17.736zM16,20.871c-2.69,0-4.872-2.182-4.872-4.871c0-2.69,2.182-4.872,4.872-4.872c2.689,0,4.871,2.182,4.871,4.872C20.871,18.689,18.689,20.871,16,20.871z"></path><title>Link options.</title></g></g></g></g><!--z-index:24--><g   id="j_270" ><path  stroke="#cccccc" d="M 1080 1059 L 893 1359" id="v-3238" stroke-width="2" stroke-dasharray="8 8" fill="none" style="opacity: 1;"></path><path  fill="black" stroke="black" d="M 0 0 0 0" transform="matrix(-0.5299989865422612,0.8479982749181605,-0.8479982749181605,-0.5299989865422612,1080.25,1059)"></path><path  fill="#cccccc" stroke="#cccccc" d="M 20 0 L 0 10 L 20 20 z" id="v-3240" transform="matrix(0.5299987607066415,-0.8479984160653982,0.8479984160653982,0.5299987607066415,884.2700160252484,1353.7000160848374)" style="opacity: 1;"></path><path  d="M 1080 1059 L 893 1359" id="v-3239" fill="none" style="cursor: auto; pointer-events: visiblepainted;"></path><g ><g id="v-3232"  label-idx="0" cursor="move" transform="matrix(1,0,0,1,986.5,1209)" style="cursor: default; opacity: 1;"><rect joint-selector="rect" id="v-3235" fill="#111111" rx="3" ry="3" pointer-events="none" width="172.9245147705078" height="91.41997909545898" transform="matrix(1,0,0,1,-85.9,-45.7)"></rect><text joint-selector="text" id="v-3234" font-size="24px" xml:space="preserve" y="0.8em" fill="#cccccc" text-anchor="middle" pointer-events="none" font-family="Open Sans, Tahoma, Arial" font-weight="normal" transform="matrix(1,0,0,1,0,-38.9)"><tspan dy="0" >Solicita el envío</tspan><tspan dy="1.2em" x="0" >de alertas</tspan><tspan dy="1.2em" x="0" >mediante</tspan></text></g><g id="v-3233"  label-idx="1" cursor="move" transform="matrix(1,0,0,1,976.5,1249.800048828125)" style="cursor: default; opacity: 1;"><rect joint-selector="rect" id="v-3237" fill="#ffffff" rx="3" ry="3"  width="0" height="0" transform="matrix(1,0,0,1,0,0)" display="none"></rect><text joint-selector="text" id="v-3236" fill="#000000" font-size="14" text-anchor="middle" pointer-events="none"></text></g></g><g  display="none" style="display: none;"></g><g  id="v-3242" display="none"><g  id="v-3230"><path  end="source" d="M 26 0 L 0 13 L 26 26 z"></path></g><g  id="v-3231"><path  end="target" d="M 26 0 L 0 13 L 26 26 z"></path></g></g><g  id="v-3241" display="none"><g  id="v-3229" transform="translate(1058.8407411961143, 1092.9453349794958) "><g  event="remove"><circle r="11"></circle><path transform="scale(.8) translate(-16, -16)" d="M24.778,21.419 19.276,15.917 24.777,10.415 21.949,7.585 16.447,13.087 10.945,7.585 8.117,10.415 13.618,15.917 8.116,21.419 10.946,24.248 16.447,18.746 21.948,24.248z"></path><title>Remove link.</title></g><g  event="link:options"><circle r="11" transform="translate(25)"></circle><path fill="white" transform="scale(.55) translate(29, -16)" d="M31.229,17.736c0.064-0.571,0.104-1.148,0.104-1.736s-0.04-1.166-0.104-1.737l-4.377-1.557c-0.218-0.716-0.504-1.401-0.851-2.05l1.993-4.192c-0.725-0.91-1.549-1.734-2.458-2.459l-4.193,1.994c-0.647-0.347-1.334-0.632-2.049-0.849l-1.558-4.378C17.165,0.708,16.588,0.667,16,0.667s-1.166,0.041-1.737,0.105L12.707,5.15c-0.716,0.217-1.401,0.502-2.05,0.849L6.464,4.005C5.554,4.73,4.73,5.554,4.005,6.464l1.994,4.192c-0.347,0.648-0.632,1.334-0.849,2.05l-4.378,1.557C0.708,14.834,0.667,15.412,0.667,16s0.041,1.165,0.105,1.736l4.378,1.558c0.217,0.715,0.502,1.401,0.849,2.049l-1.994,4.193c0.725,0.909,1.549,1.733,2.459,2.458l4.192-1.993c0.648,0.347,1.334,0.633,2.05,0.851l1.557,4.377c0.571,0.064,1.148,0.104,1.737,0.104c0.588,0,1.165-0.04,1.736-0.104l1.558-4.377c0.715-0.218,1.399-0.504,2.049-0.851l4.193,1.993c0.909-0.725,1.733-1.549,2.458-2.458l-1.993-4.193c0.347-0.647,0.633-1.334,0.851-2.049L31.229,17.736zM16,20.871c-2.69,0-4.872-2.182-4.872-4.871c0-2.69,2.182-4.872,4.872-4.872c2.689,0,4.871,2.182,4.871,4.872C20.871,18.689,18.689,20.871,16,20.871z"></path><title>Link options.</title></g></g></g></g><!--z-index:25--><g   id="j_271" ><path  stroke="#cccccc" d="M 1268 1059 L 1455 1359" id="v-3255" stroke-width="2" stroke-dasharray="8 8" fill="none" style="opacity: 1;"></path><path  fill="black" stroke="black" d="M 0 0 0 0" transform="matrix(0.52999893008336,0.8479983102049754,-0.8479983102049754,0.52999893008336,1267.75,1059)"></path><path  fill="#cccccc" stroke="#cccccc" d="M 20 0 L 0 10 L 20 20 z" id="v-3257" transform="matrix(-0.5299989865422614,-0.8479982749181603,0.8479982749181603,-0.5299989865422614,1446.769958288116,1364.2999921458543)" style="opacity: 1;"></path><path  d="M 1268 1059 L 1455 1359" id="v-3256" fill="none" style="cursor: auto; pointer-events: visiblepainted;"></path><g ><g id="v-3249"  label-idx="0" cursor="move" transform="matrix(1,0,0,1,1361.5,1209)" style="cursor: default; opacity: 1;"><rect joint-selector="rect" id="v-3252" fill="#111111" rx="3" ry="3" pointer-events="none" width="201.21932983398438" height="91.41997909545898" transform="matrix(1,0,0,1,-99.8,-45.7)"></rect><text joint-selector="text" id="v-3251" font-size="24px" xml:space="preserve" y="0.8em" fill="#cccccc" text-anchor="middle" pointer-events="none" font-family="Open Sans, Tahoma, Arial" font-weight="normal" transform="matrix(1,0,0,1,0,-38.9)"><tspan dy="0" >Procesa los pagos</tspan><tspan dy="1.2em" x="0" >de suscripción</tspan><tspan dy="1.2em" x="0" >mediante</tspan></text></g><g id="v-3250"  label-idx="1" cursor="move" transform="matrix(1,0,0,1,1351.5,1249.800048828125)" style="cursor: default; opacity: 1;"><rect joint-selector="rect" id="v-3254" fill="#ffffff" rx="3" ry="3"  width="0" height="0" transform="matrix(1,0,0,1,0,0)" display="none"></rect><text joint-selector="text" id="v-3253" fill="#000000" font-size="14" text-anchor="middle" pointer-events="none"></text></g></g><g  display="none" style="display: none;"></g><g  id="v-3259" display="none"><g  id="v-3247"><path  end="source" d="M 26 0 L 0 13 L 26 26 z"></path></g><g  id="v-3248"><path  end="target" d="M 26 0 L 0 13 L 26 26 z"></path></g></g><g  id="v-3258" display="none"><g  id="v-3246" transform="translate(1289.1592588038857, 1092.9453349794958) "><g  event="remove"><circle r="11"></circle><path transform="scale(.8) translate(-16, -16)" d="M24.778,21.419 19.276,15.917 24.777,10.415 21.949,7.585 16.447,13.087 10.945,7.585 8.117,10.415 13.618,15.917 8.116,21.419 10.946,24.248 16.447,18.746 21.948,24.248z"></path><title>Remove link.</title></g><g  event="link:options"><circle r="11" transform="translate(25)"></circle><path fill="white" transform="scale(.55) translate(29, -16)" d="M31.229,17.736c0.064-0.571,0.104-1.148,0.104-1.736s-0.04-1.166-0.104-1.737l-4.377-1.557c-0.218-0.716-0.504-1.401-0.851-2.05l1.993-4.192c-0.725-0.91-1.549-1.734-2.458-2.459l-4.193,1.994c-0.647-0.347-1.334-0.632-2.049-0.849l-1.558-4.378C17.165,0.708,16.588,0.667,16,0.667s-1.166,0.041-1.737,0.105L12.707,5.15c-0.716,0.217-1.401,0.502-2.05,0.849L6.464,4.005C5.554,4.73,4.73,5.554,4.005,6.464l1.994,4.192c-0.347,0.648-0.632,1.334-0.849,2.05l-4.378,1.557C0.708,14.834,0.667,15.412,0.667,16s0.041,1.165,0.105,1.736l4.378,1.558c0.217,0.715,0.502,1.401,0.849,2.049l-1.994,4.193c0.725,0.909,1.549,1.733,2.459,2.458l4.192-1.993c0.648,0.347,1.334,0.633,2.05,0.851l1.557,4.377c0.571,0.064,1.148,0.104,1.737,0.104c0.588,0,1.165-0.04,1.736-0.104l1.558-4.377c0.715-0.218,1.399-0.504,2.049-0.851l4.193,1.993c0.909-0.725,1.733-1.549,2.458-2.458l-1.993-4.193c0.347-0.647,0.633-1.334,0.851-2.049L31.229,17.736zM16,20.871c-2.69,0-4.872-2.182-4.872-4.871c0-2.69,2.182-4.872,4.872-4.872c2.689,0,4.871,2.182,4.871,4.872C20.871,18.689,18.689,20.871,16,20.871z"></path><title>Link options.</title></g></g></g></g><!--z-index:26--><!--z-index:27--><!--z-index:28--><!--z-index:29--><!--z-index:30--><!--z-index:31--><!--z-index:32--><!--z-index:33--><!--z-index:34--><!--z-index:35--><!--z-index:36--><!--z-index:37--><!--z-index:38--><!--z-index:39--><!--z-index:40--><!--z-index:41--><!--z-index:42--><!--z-index:43--><!--z-index:44--><!--z-index:45--><!--z-index:46--><!--z-index:47--><!--z-index:48--><!--z-index:49--><!--z-index:50--><!--z-index:51--><!--z-index:52--><!--z-index:53--><!--z-index:54--><!--z-index:55--><!--z-index:56--><!--z-index:57--><!--z-index:58--><!--z-index:59--><!--z-index:60--><!--z-index:61--><!--z-index:62--><!--z-index:63--><!--z-index:64--><!--z-index:65--><!--z-index:66--></g><g ></g><g ></g><g ></g></g></svg>